<svg width="49" height="49" viewBox="0 0 49 49" fill="none" xmlns="http://www.w3.org/2000/svg">
<rect width="49" height="49" rx="12" fill="#8C5CFF"/>
<path d="M23.4024 13.0321C23.4566 12.7421 23.6105 12.4802 23.8375 12.2917C24.0644 12.1032 24.3501 12 24.6452 12C24.9402 12 25.2259 12.1032 25.4529 12.2917C25.6798 12.4802 25.8337 12.7421 25.8879 13.0321L27.2166 20.0586C27.3109 20.5581 27.5537 21.0176 27.9132 21.3771C28.2727 21.7366 28.7322 21.9794 29.2317 22.0738L36.2582 23.4024C36.5482 23.4566 36.8102 23.6105 36.9987 23.8375C37.1871 24.0644 37.2903 24.3501 37.2903 24.6452C37.2903 24.9402 37.1871 25.2259 36.9987 25.4529C36.8102 25.6798 36.5482 25.8337 36.2582 25.8879L29.2317 27.2166C28.7322 27.3109 28.2727 27.5537 27.9132 27.9132C27.5537 28.2727 27.3109 28.7322 27.2166 29.2317L25.8879 36.2582C25.8337 36.5482 25.6798 36.8102 25.4529 36.9987C25.2259 37.1871 24.9402 37.2903 24.6452 37.2903C24.3501 37.2903 24.0644 37.1871 23.8375 36.9987C23.6105 36.8102 23.4566 36.5482 23.4024 36.2582L22.0738 29.2317C21.9794 28.7322 21.7366 28.2727 21.3771 27.9132C21.0176 27.5537 20.5581 27.3109 20.0586 27.2166L13.0321 25.8879C12.7421 25.8337 12.4802 25.6798 12.2917 25.4529C12.1032 25.2259 12 24.9402 12 24.6452C12 24.3501 12.1032 24.0644 12.2917 23.8375C12.4802 23.6105 12.7421 23.4566 13.0321 23.4024L20.0586 22.0738C20.5581 21.9794 21.0176 21.7366 21.3771 21.3771C21.7366 21.0176 21.9794 20.5581 22.0738 20.0586L23.4024 13.0321Z" stroke="white" stroke-width="2.5" stroke-linecap="round" stroke-linejoin="round"/>
<path d="M34.7588 12.0031V17.0599Z" fill="#8C5CFF"/>
<path d="M34.7588 12.0031V17.0599" stroke="white" stroke-width="2.5" stroke-linecap="round" stroke-linejoin="round"/>
<path d="M37.2871 14.5315H32.2302Z" fill="#8C5CFF"/>
<path d="M37.2871 14.5315H32.2302" stroke="white" stroke-width="2.5" stroke-linecap="round" stroke-linejoin="round"/>
<path d="M14.5314 37.2873C15.9278 37.2873 17.0598 36.1553 17.0598 34.7589C17.0598 33.3625 15.9278 32.2305 14.5314 32.2305C13.1349 32.2305 12.0029 33.3625 12.0029 34.7589C12.0029 36.1553 13.1349 37.2873 14.5314 37.2873Z" fill="#8C5CFF" stroke="white" stroke-width="2.5" stroke-linecap="round" stroke-linejoin="round"/>
</svg>
