<svg width="37" height="37" viewBox="0 0 37 37" fill="none" xmlns="http://www.w3.org/2000/svg">
<path d="M16.5585 3.31777C16.6276 2.94749 16.8241 2.61306 17.1139 2.3724C17.4037 2.13174 17.7685 2 18.1452 2C18.5218 2 18.8867 2.13174 19.1764 2.3724C19.4662 2.61306 19.6627 2.94749 19.7319 3.31777L21.4283 12.2891C21.5488 12.9269 21.8588 13.5136 22.3177 13.9726C22.7767 14.4316 23.3634 14.7415 24.0012 14.862L32.9726 16.5585C33.3428 16.6276 33.6773 16.8241 33.9179 17.1139C34.1586 17.4037 34.2903 17.7685 34.2903 18.1452C34.2903 18.5218 34.1586 18.8867 33.9179 19.1764C33.6773 19.4662 33.3428 19.6627 32.9726 19.7319L24.0012 21.4283C23.3634 21.5488 22.7767 21.8588 22.3177 22.3177C21.8588 22.7767 21.5488 23.3634 21.4283 24.0012L19.7319 32.9726C19.6627 33.3428 19.4662 33.6773 19.1764 33.9179C18.8867 34.1586 18.5218 34.2903 18.1452 34.2903C17.7685 34.2903 17.4037 34.1586 17.1139 33.9179C16.8241 33.6773 16.6276 33.3428 16.5585 32.9726L14.862 24.0012C14.7415 23.3634 14.4316 22.7767 13.9726 22.3177C13.5136 21.8588 12.9269 21.5488 12.2891 21.4283L3.31777 19.7319C2.94749 19.6627 2.61306 19.4662 2.3724 19.1764C2.13174 18.8867 2 18.5218 2 18.1452C2 17.7685 2.13174 17.4037 2.3724 17.1139C2.61306 16.8241 2.94749 16.6276 3.31777 16.5585L12.2891 14.862C12.9269 14.7415 13.5136 14.4316 13.9726 13.9726C14.4316 13.5136 14.7415 12.9269 14.862 12.2891L16.5585 3.31777Z" stroke="#3299FF" stroke-width="4" stroke-linecap="round" stroke-linejoin="round"/>
<path d="M31.0581 2.00391V8.46043" stroke="#3299FF" stroke-width="4" stroke-linecap="round" stroke-linejoin="round"/>
<path d="M34.2861 5.23218H27.8296" stroke="#3299FF" stroke-width="4" stroke-linecap="round" stroke-linejoin="round"/>
<path d="M5.23192 34.2865C7.01484 34.2865 8.46018 32.8411 8.46018 31.0582C8.46018 29.2753 7.01484 27.83 5.23192 27.83C3.449 27.83 2.00366 29.2753 2.00366 31.0582C2.00366 32.8411 3.449 34.2865 5.23192 34.2865Z" stroke="#3299FF" stroke-width="4" stroke-linecap="round" stroke-linejoin="round"/>
</svg>
