<svg width="32" height="26" viewBox="0 0 32 26" fill="none" xmlns="http://www.w3.org/2000/svg">
<mask id="path-1-inside-1_27_20" fill="white">
<path d="M3.67037 0.00209451C3.75012 0.00209451 3.82988 0.00148104 3.91208 0.00148104C4.1317 0.000254106 4.35071 0.000867574 4.57033 0.00148104C4.80774 0.00209451 5.04515 0.00148104 5.28195 0.000867574C5.74635 -0.000359361 6.21074 0.000254106 6.67452 0.000867574C7.05242 0.000867574 7.4297 0.000867574 7.80698 0.000867574C7.86097 0.000867574 7.91495 0.000867574 7.97017 0.000867574C8.07936 0.000867574 8.18917 0.000867574 8.29837 0.000867574C9.32225 0.000254106 10.3467 0.000867574 11.3712 0.00148104C12.2491 0.00270798 13.127 0.00209451 14.0042 0.00148104C15.025 0.000254106 16.0458 0.000254106 17.0667 0.000867574C17.1759 0.000867574 17.2844 0.000867574 17.3936 0.000867574C17.447 0.000867574 17.501 0.000867574 17.5562 0.000867574C17.9329 0.000867574 18.3095 0.000867574 18.6862 0.000254106C19.1457 -0.000359361 19.6052 0.000254106 20.0647 0.000867574C20.299 0.00148104 20.5327 0.00148104 20.7671 0.000867574C21.0217 0.000254106 21.2757 0.00148104 21.5302 0.00209451C21.6032 0.00148104 21.6769 0.00148104 21.7523 0.000867574C22.7001 0.00761571 23.4848 0.264659 24.1749 0.922909C24.7571 1.51859 25.119 2.22469 25.1258 3.0682C25.1264 3.10869 25.127 3.14857 25.127 3.18967C25.1282 3.32218 25.1288 3.45469 25.1295 3.5872C25.1301 3.63198 25.1301 3.67738 25.1307 3.72461C25.1319 3.96448 25.1325 4.20434 25.1331 4.44421C25.1338 4.69144 25.1362 4.93866 25.1387 5.18589C25.1399 5.37607 25.1405 5.56686 25.1405 5.75764C25.1411 5.84844 25.1417 5.93984 25.143 6.03125C25.1442 6.15885 25.1442 6.28645 25.1442 6.41405C25.1442 6.52325 25.1442 6.52325 25.1448 6.63367C25.1025 6.92078 24.9675 7.10911 24.7608 7.30787C24.4381 7.54283 24.1013 7.72626 23.7424 7.9011C23.6596 7.9422 23.6596 7.9422 23.5749 7.98453C23.1694 8.18452 23.1694 8.18452 23.0296 8.18452C23.0289 8.12256 23.0289 8.06121 23.0283 7.99741C23.0265 7.41339 23.0228 6.82937 23.0179 6.24535C23.0154 5.94536 23.0136 5.64538 23.0124 5.34478C23.0118 5.05522 23.0093 4.76505 23.0069 4.47488C23.0056 4.36507 23.005 4.25465 23.005 4.14422C23.0197 3.22648 23.0197 3.22648 22.5805 2.45228C22.1468 2.20015 21.7149 2.2161 21.2254 2.21794C21.1487 2.21794 21.072 2.21732 20.9928 2.21732C20.7812 2.21671 20.5689 2.21671 20.3567 2.21671C20.1279 2.21732 19.8984 2.21671 19.6696 2.2161C19.2212 2.21548 18.7727 2.21548 18.3243 2.21548C17.9599 2.21548 17.5955 2.21548 17.2305 2.21487C17.1532 2.21487 17.1532 2.21487 17.0734 2.21487C16.9679 2.21487 16.8624 2.21487 16.7575 2.21487C15.7686 2.21426 14.7803 2.21426 13.7914 2.21487C12.8877 2.21487 11.9835 2.21426 11.0792 2.21303C10.1504 2.2118 9.22225 2.21119 8.29346 2.2118C7.77202 2.2118 7.25057 2.2118 6.72973 2.21058C6.28558 2.20996 5.84205 2.20996 5.39851 2.21058C5.17214 2.21119 4.94577 2.21119 4.7194 2.21058C4.47402 2.20935 4.22863 2.20996 3.98324 2.21119C3.91147 2.21058 3.8403 2.20996 3.76669 2.20935C3.29677 2.21303 2.95937 2.27622 2.5508 2.5216C2.25756 2.83141 2.20541 3.22034 2.21032 3.63259C2.21032 3.70069 2.21032 3.70069 2.21032 3.77001C2.20971 3.92154 2.21094 4.07245 2.21155 4.22336C2.21216 4.33256 2.21155 4.44114 2.21155 4.55034C2.21155 4.8448 2.21278 5.13927 2.214 5.43373C2.21523 5.74169 2.21523 6.05027 2.21584 6.35823C2.21584 6.94164 2.21768 7.52443 2.21952 8.10784C2.22136 8.77161 2.22259 9.43599 2.22321 10.0998C2.22566 11.4653 2.22873 12.8309 2.23302 14.1965C2.27474 14.1382 2.31645 14.0793 2.35939 14.0192C2.41461 13.9413 2.47043 13.8634 2.52564 13.7855C2.55325 13.7474 2.58086 13.7088 2.60908 13.6689C2.82318 13.3689 3.04096 13.0708 3.26058 12.7739C3.33419 12.6739 3.40781 12.5745 3.48143 12.4745C3.51885 12.4242 3.55566 12.3745 3.59369 12.323C3.73847 12.1267 3.88325 11.9304 4.02741 11.7347C4.09919 11.6371 4.17035 11.5402 4.24213 11.4433C4.42003 11.2022 4.59732 10.9611 4.774 10.7194C5.18932 10.1531 5.61077 9.59243 6.03774 9.03479C6.31564 8.671 6.58925 8.30415 6.8604 7.93545C6.89598 7.88699 6.93157 7.83914 6.96776 7.78945C7.09475 7.61706 7.22112 7.44468 7.34688 7.27229C8.16709 6.14535 8.16709 6.14535 8.79712 5.97604C9.25845 5.91162 9.62653 5.98217 10.0241 6.22142C10.3633 6.48153 10.6314 6.77539 10.8829 7.11893C10.9516 7.21095 11.0203 7.30297 11.0896 7.39499C11.1252 7.44345 11.1614 7.49192 11.1982 7.54161C11.3577 7.75448 11.5191 7.96613 11.681 8.17716C12.0479 8.6575 12.4123 9.13969 12.7742 9.62371C13.1098 10.0715 13.4515 10.5139 13.7938 10.9556C13.8447 11.0212 13.8956 11.0868 13.9459 11.1525C13.9711 11.1844 13.9956 11.2163 14.0214 11.2494C14.1637 11.4347 14.3036 11.6218 14.441 11.8113C14.4717 11.8537 14.5024 11.8954 14.5337 11.9389C14.5932 12.0218 14.6527 12.104 14.7122 12.1868C14.8539 12.3954 14.8539 12.3954 15.0545 12.5401C15.0674 12.5076 15.0809 12.4751 15.0944 12.442C15.2085 12.2383 15.3606 12.0739 15.5183 11.904C15.5673 11.8506 15.5673 11.8506 15.6176 11.796C16.0673 11.3218 16.5495 10.9973 17.2127 10.9439C17.8869 10.9494 18.4114 11.2377 18.8887 11.6929C19.1629 11.9794 19.4083 12.2917 19.6555 12.6015C19.5708 12.8561 19.4592 13.0039 19.2696 13.1916C19.2169 13.2438 19.1641 13.2965 19.1095 13.3505C19.0543 13.4045 18.9991 13.4585 18.942 13.5143C18.888 13.5677 18.8341 13.6211 18.7788 13.6763C18.5512 13.9008 18.323 14.121 18.0801 14.329C17.7654 14.6032 17.474 14.8989 17.1801 15.1952C17.12 15.2553 17.0605 15.3161 17.0004 15.3762C16.8115 15.5658 16.6231 15.7553 16.4348 15.9449C16.2158 16.1651 15.9968 16.3854 15.7778 16.605C15.6913 16.6921 15.6048 16.7792 15.5183 16.8669C15.2477 17.1381 14.9741 17.3988 14.684 17.6479C14.4533 17.8522 14.2392 18.073 14.0226 18.2914C13.9729 18.3417 13.9233 18.3914 13.8717 18.4435C13.7134 18.6024 13.5558 18.7613 13.3981 18.9202C13.1895 19.13 12.9816 19.3398 12.773 19.549C12.7258 19.5962 12.6791 19.6441 12.6307 19.6926C12.3742 19.9508 12.1117 20.1974 11.8356 20.4342C11.7823 20.4802 11.7301 20.5269 11.6804 20.5766C11.5657 20.5833 11.4504 20.5851 11.3356 20.5858C11.2608 20.5864 11.186 20.5864 11.1093 20.587C11.0252 20.587 10.9418 20.5876 10.8578 20.5876C10.7706 20.5876 10.6829 20.5882 10.5952 20.5888C10.3069 20.5901 10.0179 20.5907 9.72959 20.5913C9.63021 20.5913 9.53083 20.5919 9.43144 20.5919C8.96337 20.5931 8.49591 20.5937 8.02783 20.5943C7.48921 20.595 6.95058 20.5968 6.41135 20.5993C5.9948 20.6011 5.57764 20.6017 5.1611 20.6023C4.91203 20.6023 4.66358 20.6029 4.41451 20.6042C4.18017 20.606 3.94521 20.606 3.71086 20.6054C3.62498 20.6054 3.53971 20.606 3.45443 20.6066C2.44712 20.6164 1.64287 20.3428 0.90241 19.6564C0.249681 18.9779 0.00429434 18.1705 0.00797514 17.2424C0.00797514 17.181 0.00797524 17.1191 0.00736177 17.0559C0.00674831 16.8504 0.00736177 16.6455 0.00736177 16.4399C0.00736177 16.2921 0.00674818 16.1449 0.00674818 15.997C0.00552124 15.6381 0.00552121 15.2793 0.00552121 14.921C0.00552121 14.629 0.00552121 14.337 0.00552121 14.0456C0.00552121 14.0039 0.00552121 13.9622 0.00552121 13.9192C0.00552121 13.8346 0.00490785 13.7505 0.00490785 13.6658C0.00429438 12.8739 0.00429438 12.0819 0.00490785 11.2899C0.00552132 10.5666 0.00429435 9.84272 0.00368089 9.11944C0.00245395 8.37531 0.00184056 7.63117 0.00184056 6.88704C0.00184056 6.46988 0.00184043 6.05272 0.00122696 5.63556C2.81097e-08 5.24294 0.000613495 4.85033 0.00122696 4.45832C0.00122696 4.31416 0.00122707 4.1706 0.000613598 4.02705C1.31064e-07 3.83013 0.000613495 3.63321 0.00122696 3.43628C0.000613495 3.37984 0.000613467 3.32341 0 3.26574C0.00797507 2.28174 0.438629 1.51245 1.1208 0.830889C1.83917 0.158529 2.71398 -0.0034267 3.67037 0.00209451Z"/>
</mask>
<path d="M3.67037 0.00209451C3.75012 0.00209451 3.82988 0.00148104 3.91208 0.00148104C4.1317 0.000254106 4.35071 0.000867574 4.57033 0.00148104C4.80774 0.00209451 5.04515 0.00148104 5.28195 0.000867574C5.74635 -0.000359361 6.21074 0.000254106 6.67452 0.000867574C7.05242 0.000867574 7.4297 0.000867574 7.80698 0.000867574C7.86097 0.000867574 7.91495 0.000867574 7.97017 0.000867574C8.07936 0.000867574 8.18917 0.000867574 8.29837 0.000867574C9.32225 0.000254106 10.3467 0.000867574 11.3712 0.00148104C12.2491 0.00270798 13.127 0.00209451 14.0042 0.00148104C15.025 0.000254106 16.0458 0.000254106 17.0667 0.000867574C17.1759 0.000867574 17.2844 0.000867574 17.3936 0.000867574C17.447 0.000867574 17.501 0.000867574 17.5562 0.000867574C17.9329 0.000867574 18.3095 0.000867574 18.6862 0.000254106C19.1457 -0.000359361 19.6052 0.000254106 20.0647 0.000867574C20.299 0.00148104 20.5327 0.00148104 20.7671 0.000867574C21.0217 0.000254106 21.2757 0.00148104 21.5302 0.00209451C21.6032 0.00148104 21.6769 0.00148104 21.7523 0.000867574C22.7001 0.00761571 23.4848 0.264659 24.1749 0.922909C24.7571 1.51859 25.119 2.22469 25.1258 3.0682C25.1264 3.10869 25.127 3.14857 25.127 3.18967C25.1282 3.32218 25.1288 3.45469 25.1295 3.5872C25.1301 3.63198 25.1301 3.67738 25.1307 3.72461C25.1319 3.96448 25.1325 4.20434 25.1331 4.44421C25.1338 4.69144 25.1362 4.93866 25.1387 5.18589C25.1399 5.37607 25.1405 5.56686 25.1405 5.75764C25.1411 5.84844 25.1417 5.93984 25.143 6.03125C25.1442 6.15885 25.1442 6.28645 25.1442 6.41405C25.1442 6.52325 25.1442 6.52325 25.1448 6.63367C25.1025 6.92078 24.9675 7.10911 24.7608 7.30787C24.4381 7.54283 24.1013 7.72626 23.7424 7.9011C23.6596 7.9422 23.6596 7.9422 23.5749 7.98453C23.1694 8.18452 23.1694 8.18452 23.0296 8.18452C23.0289 8.12256 23.0289 8.06121 23.0283 7.99741C23.0265 7.41339 23.0228 6.82937 23.0179 6.24535C23.0154 5.94536 23.0136 5.64538 23.0124 5.34478C23.0118 5.05522 23.0093 4.76505 23.0069 4.47488C23.0056 4.36507 23.005 4.25465 23.005 4.14422C23.0197 3.22648 23.0197 3.22648 22.5805 2.45228C22.1468 2.20015 21.7149 2.2161 21.2254 2.21794C21.1487 2.21794 21.072 2.21732 20.9928 2.21732C20.7812 2.21671 20.5689 2.21671 20.3567 2.21671C20.1279 2.21732 19.8984 2.21671 19.6696 2.2161C19.2212 2.21548 18.7727 2.21548 18.3243 2.21548C17.9599 2.21548 17.5955 2.21548 17.2305 2.21487C17.1532 2.21487 17.1532 2.21487 17.0734 2.21487C16.9679 2.21487 16.8624 2.21487 16.7575 2.21487C15.7686 2.21426 14.7803 2.21426 13.7914 2.21487C12.8877 2.21487 11.9835 2.21426 11.0792 2.21303C10.1504 2.2118 9.22225 2.21119 8.29346 2.2118C7.77202 2.2118 7.25057 2.2118 6.72973 2.21058C6.28558 2.20996 5.84205 2.20996 5.39851 2.21058C5.17214 2.21119 4.94577 2.21119 4.7194 2.21058C4.47402 2.20935 4.22863 2.20996 3.98324 2.21119C3.91147 2.21058 3.8403 2.20996 3.76669 2.20935C3.29677 2.21303 2.95937 2.27622 2.5508 2.5216C2.25756 2.83141 2.20541 3.22034 2.21032 3.63259C2.21032 3.70069 2.21032 3.70069 2.21032 3.77001C2.20971 3.92154 2.21094 4.07245 2.21155 4.22336C2.21216 4.33256 2.21155 4.44114 2.21155 4.55034C2.21155 4.8448 2.21278 5.13927 2.214 5.43373C2.21523 5.74169 2.21523 6.05027 2.21584 6.35823C2.21584 6.94164 2.21768 7.52443 2.21952 8.10784C2.22136 8.77161 2.22259 9.43599 2.22321 10.0998C2.22566 11.4653 2.22873 12.8309 2.23302 14.1965C2.27474 14.1382 2.31645 14.0793 2.35939 14.0192C2.41461 13.9413 2.47043 13.8634 2.52564 13.7855C2.55325 13.7474 2.58086 13.7088 2.60908 13.6689C2.82318 13.3689 3.04096 13.0708 3.26058 12.7739C3.33419 12.6739 3.40781 12.5745 3.48143 12.4745C3.51885 12.4242 3.55566 12.3745 3.59369 12.323C3.73847 12.1267 3.88325 11.9304 4.02741 11.7347C4.09919 11.6371 4.17035 11.5402 4.24213 11.4433C4.42003 11.2022 4.59732 10.9611 4.774 10.7194C5.18932 10.1531 5.61077 9.59243 6.03774 9.03479C6.31564 8.671 6.58925 8.30415 6.8604 7.93545C6.89598 7.88699 6.93157 7.83914 6.96776 7.78945C7.09475 7.61706 7.22112 7.44468 7.34688 7.27229C8.16709 6.14535 8.16709 6.14535 8.79712 5.97604C9.25845 5.91162 9.62653 5.98217 10.0241 6.22142C10.3633 6.48153 10.6314 6.77539 10.8829 7.11893C10.9516 7.21095 11.0203 7.30297 11.0896 7.39499C11.1252 7.44345 11.1614 7.49192 11.1982 7.54161C11.3577 7.75448 11.5191 7.96613 11.681 8.17716C12.0479 8.6575 12.4123 9.13969 12.7742 9.62371C13.1098 10.0715 13.4515 10.5139 13.7938 10.9556C13.8447 11.0212 13.8956 11.0868 13.9459 11.1525C13.9711 11.1844 13.9956 11.2163 14.0214 11.2494C14.1637 11.4347 14.3036 11.6218 14.441 11.8113C14.4717 11.8537 14.5024 11.8954 14.5337 11.9389C14.5932 12.0218 14.6527 12.104 14.7122 12.1868C14.8539 12.3954 14.8539 12.3954 15.0545 12.5401C15.0674 12.5076 15.0809 12.4751 15.0944 12.442C15.2085 12.2383 15.3606 12.0739 15.5183 11.904C15.5673 11.8506 15.5673 11.8506 15.6176 11.796C16.0673 11.3218 16.5495 10.9973 17.2127 10.9439C17.8869 10.9494 18.4114 11.2377 18.8887 11.6929C19.1629 11.9794 19.4083 12.2917 19.6555 12.6015C19.5708 12.8561 19.4592 13.0039 19.2696 13.1916C19.2169 13.2438 19.1641 13.2965 19.1095 13.3505C19.0543 13.4045 18.9991 13.4585 18.942 13.5143C18.888 13.5677 18.8341 13.6211 18.7788 13.6763C18.5512 13.9008 18.323 14.121 18.0801 14.329C17.7654 14.6032 17.474 14.8989 17.1801 15.1952C17.12 15.2553 17.0605 15.3161 17.0004 15.3762C16.8115 15.5658 16.6231 15.7553 16.4348 15.9449C16.2158 16.1651 15.9968 16.3854 15.7778 16.605C15.6913 16.6921 15.6048 16.7792 15.5183 16.8669C15.2477 17.1381 14.9741 17.3988 14.684 17.6479C14.4533 17.8522 14.2392 18.073 14.0226 18.2914C13.9729 18.3417 13.9233 18.3914 13.8717 18.4435C13.7134 18.6024 13.5558 18.7613 13.3981 18.9202C13.1895 19.13 12.9816 19.3398 12.773 19.549C12.7258 19.5962 12.6791 19.6441 12.6307 19.6926C12.3742 19.9508 12.1117 20.1974 11.8356 20.4342C11.7823 20.4802 11.7301 20.5269 11.6804 20.5766C11.5657 20.5833 11.4504 20.5851 11.3356 20.5858C11.2608 20.5864 11.186 20.5864 11.1093 20.587C11.0252 20.587 10.9418 20.5876 10.8578 20.5876C10.7706 20.5876 10.6829 20.5882 10.5952 20.5888C10.3069 20.5901 10.0179 20.5907 9.72959 20.5913C9.63021 20.5913 9.53083 20.5919 9.43144 20.5919C8.96337 20.5931 8.49591 20.5937 8.02783 20.5943C7.48921 20.595 6.95058 20.5968 6.41135 20.5993C5.9948 20.6011 5.57764 20.6017 5.1611 20.6023C4.91203 20.6023 4.66358 20.6029 4.41451 20.6042C4.18017 20.606 3.94521 20.606 3.71086 20.6054C3.62498 20.6054 3.53971 20.606 3.45443 20.6066C2.44712 20.6164 1.64287 20.3428 0.90241 19.6564C0.249681 18.9779 0.00429434 18.1705 0.00797514 17.2424C0.00797514 17.181 0.00797524 17.1191 0.00736177 17.0559C0.00674831 16.8504 0.00736177 16.6455 0.00736177 16.4399C0.00736177 16.2921 0.00674818 16.1449 0.00674818 15.997C0.00552124 15.6381 0.00552121 15.2793 0.00552121 14.921C0.00552121 14.629 0.00552121 14.337 0.00552121 14.0456C0.00552121 14.0039 0.00552121 13.9622 0.00552121 13.9192C0.00552121 13.8346 0.00490785 13.7505 0.00490785 13.6658C0.00429438 12.8739 0.00429438 12.0819 0.00490785 11.2899C0.00552132 10.5666 0.00429435 9.84272 0.00368089 9.11944C0.00245395 8.37531 0.00184056 7.63117 0.00184056 6.88704C0.00184056 6.46988 0.00184043 6.05272 0.00122696 5.63556C2.81097e-08 5.24294 0.000613495 4.85033 0.00122696 4.45832C0.00122696 4.31416 0.00122707 4.1706 0.000613598 4.02705C1.31064e-07 3.83013 0.000613495 3.63321 0.00122696 3.43628C0.000613495 3.37984 0.000613467 3.32341 0 3.26574C0.00797507 2.28174 0.438629 1.51245 1.1208 0.830889C1.83917 0.158529 2.71398 -0.0034267 3.67037 0.00209451Z" fill="#3DEBF8" stroke="#30B4F2" stroke-width="4" mask="url(#path-1-inside-1_27_20)"/>
<path d="M24.4457 12.131C24.4751 12.1338 24.5164 12.1456 24.5736 12.1729C24.6895 12.2712 24.7449 12.3517 24.769 12.4063C24.7808 12.5382 24.7747 12.6014 24.766 12.6358C24.7574 12.6699 24.7341 12.731 24.6459 12.8477C24.4152 13.1149 24.1589 13.3668 23.8617 13.6602L23.8588 13.6632C23.8003 13.7213 23.7417 13.7795 23.684 13.837L23.5102 14.0108C23.4352 14.0858 23.3615 14.1591 23.2885 14.2315L23.2856 14.2345L23.1859 14.3331C23.0306 14.4868 22.878 14.6289 22.7201 14.7628L22.7113 14.7706C22.5094 14.9457 22.315 15.13 22.1303 15.3116L21.6068 15.837C21.5418 15.9023 21.4766 15.968 21.4115 16.0333C21.3466 16.0986 21.2812 16.1634 21.2162 16.2286C20.94 16.5054 20.6638 16.7827 20.3881 17.0597C20.228 17.2204 20.0677 17.3814 19.9076 17.5421L19.4291 18.0226L19.0453 18.4083C18.7132 18.7417 18.414 19.0392 18.0941 19.3106L18.0746 19.3282C17.7516 19.6169 17.4462 19.9344 17.185 20.1974C17.1257 20.2569 17.0663 20.3169 17.0063 20.377C16.9467 20.4368 16.8866 20.4973 16.8266 20.5577L16.0629 21.3243C15.7689 21.6201 15.4752 21.9147 15.1791 22.212H15.1781L14.8266 22.5655C14.504 22.8894 14.2069 23.1828 13.893 23.4503L13.8871 23.4552C13.6946 23.622 13.5242 23.7988 13.3871 23.9405C13.3557 23.9726 13.3244 24.0044 13.2943 24.0352C13.264 24.0664 13.2348 24.0971 13.2055 24.127C13.1103 24.2241 13.0153 24.3213 12.9223 24.4181C12.7275 24.6201 12.5984 24.7537 12.4975 24.8517C12.4489 24.8987 12.4152 24.9308 12.39 24.9522C12.3837 24.9577 12.3771 24.9612 12.3725 24.9649C12.3509 24.9693 12.3127 24.9767 12.2494 24.9874C12.0627 24.9842 11.9918 24.9724 11.9565 24.961C11.9424 24.9566 11.9056 24.9438 11.8197 24.8634C11.767 24.8005 11.7582 24.7738 11.7563 24.7677C11.7517 24.7535 11.7419 24.7108 11.7426 24.5968C11.7555 24.5524 11.7905 24.4772 11.89 24.3556C11.9542 24.2771 12.0327 24.1936 12.1322 24.0938L12.4594 23.7686L12.4672 23.7608C12.5258 23.6991 12.5342 23.6903 12.5795 23.6427H13.2934V22.9444C13.331 22.9117 13.3692 22.8774 13.4106 22.8438L13.4125 22.8429C13.6703 22.6328 13.8637 22.4031 14.0121 22.2257L14.0131 22.2267C14.1408 22.0754 14.2836 21.9386 14.4555 21.7989C14.5331 21.7362 14.6318 21.6588 14.7221 21.5675C14.8047 21.4839 14.8746 21.3936 14.933 21.3194C15.0069 21.2308 15.0831 21.1599 15.2113 21.0577L15.2504 21.0245C15.4255 20.8697 15.5635 20.7086 15.6635 20.5909C15.7732 20.4617 15.8488 20.3842 15.9291 20.3204L15.9359 20.3145L15.9438 20.3087C16.1923 20.1039 16.3751 19.8858 16.5219 19.7061C16.7089 19.5142 16.9098 19.3281 17.1303 19.13L17.1332 19.128C17.3804 18.904 17.6281 18.6578 17.8647 18.3702L17.8656 18.3712C17.9434 18.2826 18.0323 18.2085 18.2172 18.0509L18.225 18.044C18.5303 17.7782 18.8106 17.4921 19.0688 17.1808C19.1543 17.0785 19.2473 16.9864 19.3666 16.8849L19.3725 16.88C19.6483 16.6416 19.9017 16.3953 20.14 16.1544L20.1391 16.1534C20.1994 16.093 20.2027 16.0914 20.266 16.0274L20.265 16.0265C20.3558 15.9357 20.4474 15.8453 20.5375 15.754L20.5365 15.753L20.9623 15.3272L22.1791 14.1046C22.427 13.8549 22.6757 13.6056 22.9242 13.3565L22.9252 13.3546L23.2084 13.0694L23.2094 13.0685C23.3397 12.9369 23.4719 12.8046 23.6039 12.672L23.6029 12.671C23.642 12.6319 23.6818 12.5937 23.7182 12.5567C23.9516 12.3239 24.1487 12.1983 24.2943 12.1515C24.3589 12.1307 24.4071 12.1272 24.4457 12.131Z" fill="#3DEBF8" stroke="#30B4F2" stroke-width="2"/>
<path d="M27.9547 7.83954C28.1674 8.26667 28.4848 8.73012 28.9772 9.05829L28.9967 9.07098L29.0163 9.0827C29.2553 9.22654 29.4967 9.35019 29.7379 9.45966C29.616 9.51826 29.493 9.58262 29.3708 9.65497L29.1706 9.78094C29.132 9.80607 29.0931 9.83157 29.0524 9.85809L29.026 9.87469L29.0016 9.89325C28.4955 10.2699 28.1664 10.7595 27.9391 11.239C27.6454 10.6488 27.2164 10.0831 26.5475 9.65497L26.5299 9.64423L26.5114 9.63348L26.3327 9.53485C26.3006 9.51812 26.268 9.5028 26.236 9.487C26.8901 9.16262 27.5205 8.68511 27.9547 7.83954Z" fill="#3DEBF8" stroke="#30B4F2" stroke-width="2"/>
<path d="M24.1327 18.1955V18.2092C24.1347 18.3249 24.1338 18.2989 24.1357 18.4133C24.1357 19.0829 23.9595 19.5285 23.5077 20.0158C23.0908 20.41 22.662 20.6076 22.2421 20.6066H21.9071C21.8682 20.6065 21.8265 20.6056 21.7841 20.6056H21.5419C21.4704 20.6056 21.3986 20.6048 21.3271 20.6047C21.4399 20.4914 21.5537 20.3784 21.6669 20.2648V20.2638C22.108 19.8203 22.5501 19.3773 22.9921 18.9347L22.9931 18.9338C23.2594 18.6662 23.5285 18.3963 23.7958 18.1271L23.7948 18.1261C23.9067 18.014 24.0186 17.9027 24.1298 17.7912C24.1305 17.9259 24.1324 18.0608 24.1327 18.1955Z" fill="#3DEBF8" stroke="#30B4F2" stroke-width="2"/>
<path d="M17.1046 6.61198C17.5647 6.16218 18.2019 6.07917 18.628 6.3278C18.9938 6.60815 19.166 6.86636 19.2452 7.2321C19.2843 7.59133 19.2234 7.85844 19.0567 8.11589C18.7733 8.46101 18.5622 8.60144 18.3585 8.64323C17.805 8.68562 17.5713 8.64063 17.3575 8.48405C16.982 8.1557 16.8611 7.93978 16.8302 7.62077C16.8149 7.163 16.8918 6.88983 17.1046 6.61198Z" fill="#3DEBF8" stroke="#30B4F2" stroke-width="2"/>
</svg>
