<svg width="507" height="127" viewBox="0 0 507 127" fill="none" xmlns="http://www.w3.org/2000/svg">
<mask id="path-1-inside-1_25_2" fill="white">
<path d="M17.9349 0.0102346C18.3246 0.0102346 18.7143 0.00723697 19.116 0.00723697C20.1892 0.00124167 21.2593 0.00423932 22.3325 0.00723697C23.4926 0.0102346 24.6527 0.00723697 25.8098 0.00423932C28.079 -0.00175598 30.3482 0.00124167 32.6144 0.00423932C34.461 0.00423932 36.3046 0.00423932 38.1481 0.00423932C38.4119 0.00423932 38.6757 0.00423932 38.9455 0.00423932C39.4791 0.00423932 40.0156 0.00423932 40.5492 0.00423932C45.5523 0.00124167 50.5584 0.00423932 55.5645 0.00723697C59.8541 0.0132323 64.1437 0.0102346 68.4304 0.00723697C73.4185 0.00124167 78.4066 0.00124167 83.3947 0.00423932C83.9282 0.00423932 84.4588 0.00423932 84.9924 0.00423932C85.2532 0.00423932 85.517 0.00423932 85.7868 0.00423932C87.6273 0.00423932 89.4679 0.00423932 91.3085 0.00124167C93.5537 -0.00175598 95.7989 0.00124167 98.0442 0.00423932C99.1893 0.00723697 100.331 0.00723697 101.477 0.00423932C102.721 0.00124167 103.962 0.00723697 105.206 0.0102346C105.562 0.00723697 105.922 0.00723697 106.291 0.00423932C110.922 0.0372135 114.756 1.29323 118.128 4.50971C120.973 7.42043 122.742 10.8707 122.775 14.9925C122.778 15.1903 122.781 15.3852 122.781 15.586C122.787 16.2335 122.79 16.881 122.793 17.5285C122.796 17.7473 122.796 17.9692 122.799 18.2C122.805 19.3721 122.808 20.5441 122.811 21.7162C122.814 22.9243 122.826 24.1323 122.838 25.3404C122.844 26.2697 122.847 27.2019 122.847 28.1342C122.85 28.5779 122.853 29.0245 122.859 29.4712C122.865 30.0947 122.865 30.7182 122.865 31.3417C122.865 31.8753 122.865 31.8753 122.868 32.4148C122.661 33.8177 122.001 34.738 120.991 35.7093C119.414 36.8574 117.769 37.7537 116.015 38.608C115.61 38.8088 115.61 38.8088 115.197 39.0157C113.215 39.9929 113.215 39.9929 112.532 39.9929C112.529 39.6901 112.529 39.3904 112.526 39.0786C112.517 36.2249 112.499 33.3711 112.475 30.5173C112.463 29.0515 112.454 27.5856 112.448 26.1168C112.445 24.7019 112.433 23.284 112.421 21.8661C112.415 21.3295 112.412 20.79 112.412 20.2504C112.484 15.7659 112.484 15.7659 110.338 11.9829C108.218 10.7508 106.108 10.8288 103.716 10.8378C103.341 10.8378 102.966 10.8348 102.58 10.8348C101.545 10.8318 100.508 10.8318 99.4711 10.8318C98.3529 10.8348 97.2318 10.8318 96.1137 10.8288C93.9224 10.8258 91.7311 10.8258 89.5399 10.8258C87.7592 10.8258 85.9786 10.8258 84.195 10.8228C83.8173 10.8228 83.8173 10.8228 83.4276 10.8228C82.912 10.8228 82.3964 10.8228 81.8838 10.8228C77.0516 10.8198 72.2224 10.8198 67.3902 10.8228C62.9747 10.8228 58.5561 10.8198 54.1376 10.8138C49.5991 10.8078 45.0637 10.8048 40.5252 10.8078C37.9772 10.8078 35.4292 10.8078 32.8842 10.8018C30.7139 10.7988 28.5466 10.7988 26.3793 10.8018C25.2732 10.8048 24.1671 10.8048 23.0609 10.8018C21.8619 10.7958 20.6628 10.7988 19.4638 10.8048C19.113 10.8018 18.7653 10.7988 18.4056 10.7958C16.1094 10.8138 14.4607 11.1225 12.4642 12.3216C11.0314 13.8354 10.7766 15.7359 10.8005 17.7503C10.8005 18.0831 10.8005 18.0831 10.8005 18.4218C10.7975 19.1622 10.8035 19.8997 10.8065 20.6371C10.8095 21.1707 10.8065 21.7012 10.8065 22.2348C10.8065 23.6737 10.8125 25.1126 10.8185 26.5514C10.8245 28.0563 10.8245 29.5641 10.8275 31.0689C10.8275 33.9197 10.8365 36.7674 10.8455 39.6182C10.8545 42.8617 10.8605 46.1081 10.8635 49.3516C10.8755 56.0244 10.8905 62.6971 10.9115 69.3699C11.1153 69.0851 11.3191 68.7973 11.529 68.5036C11.7988 68.1229 12.0715 67.7422 12.3413 67.3615C12.4762 67.1756 12.6111 66.9868 12.749 66.7919C13.7952 65.3261 14.8594 63.8692 15.9325 62.4183C16.2922 61.9297 16.652 61.4441 17.0117 60.9555C17.1945 60.7097 17.3744 60.4669 17.5602 60.2151C18.2677 59.2558 18.9751 58.2966 19.6796 57.3403C20.0303 56.8637 20.378 56.3901 20.7288 55.9164C21.5981 54.7384 22.4644 53.5603 23.3277 52.3792C25.3571 49.6124 27.4165 46.8725 29.5029 44.1477C30.8608 42.3701 32.1978 40.5775 33.5227 38.7759C33.6966 38.5391 33.8705 38.3052 34.0473 38.0624C34.6678 37.2201 35.2854 36.3777 35.8999 35.5354C39.9077 30.0287 39.9077 30.0287 42.9863 29.2014C45.2406 28.8866 47.0391 29.2313 48.9816 30.4004C50.6393 31.6714 51.9493 33.1073 53.1783 34.786C53.5141 35.2356 53.8498 35.6853 54.1885 36.1349C54.3624 36.3717 54.5393 36.6086 54.7191 36.8514C55.4985 37.8916 56.2869 38.9257 57.0783 39.9569C58.8709 42.3041 60.6515 44.6603 62.4201 47.0254C64.0598 49.2137 65.7295 51.375 67.4022 53.5333C67.651 53.8541 67.8998 54.1748 68.1456 54.4955C68.2685 54.6514 68.3884 54.8073 68.5143 54.9692C69.2098 55.8745 69.8932 56.7888 70.5647 57.715C70.7146 57.9219 70.8645 58.1257 71.0174 58.3385C71.3081 58.7432 71.5989 59.1449 71.8897 59.5496C72.5821 60.5688 72.5821 60.5688 73.5624 61.2762C73.6253 61.1174 73.6913 60.9585 73.7572 60.7966C74.3148 59.8014 75.0582 58.998 75.8286 58.1677C76.0684 57.9069 76.0684 57.9069 76.3142 57.6401C78.5115 55.3229 80.8676 53.7371 84.1081 53.4763C87.4025 53.5033 89.9655 54.9122 92.2977 57.1365C93.6376 58.5364 94.8367 60.0622 96.0448 61.576C95.6311 62.82 95.0855 63.5425 94.1592 64.4597C93.9014 64.7145 93.6436 64.9723 93.3768 65.2361C93.1071 65.4999 92.8373 65.7637 92.5585 66.0365C92.2947 66.2973 92.0309 66.5581 91.7611 66.8279C90.649 67.925 89.5339 69.0012 88.3468 70.0174C86.809 71.3573 85.3851 72.8022 83.9492 74.2501C83.6555 74.5438 83.3647 74.8406 83.0709 75.1344C82.1476 76.0607 81.2274 76.9869 80.3071 77.9132C79.2369 78.9894 78.1668 80.0655 77.0966 81.1387C76.6739 81.5643 76.2513 81.99 75.8286 82.4187C74.5066 83.7436 73.1697 85.0176 71.7518 86.2347C70.6247 87.2329 69.5785 88.3121 68.5203 89.3792C68.2775 89.625 68.0347 89.8678 67.7829 90.1226C67.0095 90.899 66.2391 91.6754 65.4687 92.4518C64.4495 93.477 63.4333 94.5022 62.4141 95.5244C62.1833 95.7552 61.9555 95.989 61.7186 96.2259C60.4656 97.4879 59.1826 98.6929 57.8337 99.85C57.5729 100.075 57.3181 100.303 57.0753 100.545C56.5147 100.578 55.9512 100.587 55.3906 100.59C55.0249 100.593 54.6592 100.593 54.2845 100.596C53.8738 100.596 53.4661 100.599 53.0554 100.599C52.6298 100.599 52.2011 100.602 51.7724 100.605C50.3635 100.611 48.9516 100.614 47.5428 100.617C47.0571 100.617 46.5715 100.62 46.0859 100.62C43.7987 100.626 41.5145 100.629 39.2273 100.632C36.5953 100.635 33.9634 100.644 31.3285 100.656C29.2931 100.665 27.2546 100.668 25.2192 100.671C24.0022 100.671 22.7881 100.674 21.5711 100.68C20.426 100.689 19.2779 100.689 18.1328 100.686C17.7131 100.686 17.2964 100.689 16.8798 100.692C11.9576 100.74 8.02771 99.4034 4.40955 96.049C1.22004 92.7336 0.0209839 88.7887 0.0389698 84.2532C0.0389698 83.9535 0.0389703 83.6507 0.0359726 83.3419C0.032975 82.3377 0.0359726 81.3365 0.0359726 80.3323C0.0359726 79.6099 0.0329743 78.8904 0.0329743 78.168C0.026979 76.4144 0.0269789 74.6608 0.0269789 72.9101C0.0269789 71.4832 0.0269789 70.0564 0.0269789 68.6325C0.0269789 68.4286 0.0269789 68.2248 0.0269789 68.015C0.0269789 67.6013 0.0239818 67.1906 0.0239818 66.7769C0.0209841 62.907 0.0209841 59.037 0.0239818 55.167C0.0269794 51.6328 0.020984 48.0956 0.0179863 44.5613C0.011991 40.9252 0.00899373 37.289 0.00899373 33.6529C0.00899373 31.6145 0.00899309 29.5761 0.00599544 27.5377C1.37356e-07 25.6192 0.00299779 23.7007 0.00599544 21.7852C0.00599544 21.0807 0.00599594 20.3793 0.00299829 19.6778C6.40434e-07 18.7156 0.00299779 17.7533 0.00599544 16.7911C0.00299779 16.5153 0.00299765 16.2395 0 15.9577C0.0389695 11.1495 2.14332 7.39045 5.47671 4.06006C8.98696 0.774636 13.2616 -0.0167442 17.9349 0.0102346Z"/>
</mask>
<path d="M17.9349 0.0102346C18.3246 0.0102346 18.7143 0.00723697 19.116 0.00723697C20.1892 0.00124167 21.2593 0.00423932 22.3325 0.00723697C23.4926 0.0102346 24.6527 0.00723697 25.8098 0.00423932C28.079 -0.00175598 30.3482 0.00124167 32.6144 0.00423932C34.461 0.00423932 36.3046 0.00423932 38.1481 0.00423932C38.4119 0.00423932 38.6757 0.00423932 38.9455 0.00423932C39.4791 0.00423932 40.0156 0.00423932 40.5492 0.00423932C45.5523 0.00124167 50.5584 0.00423932 55.5645 0.00723697C59.8541 0.0132323 64.1437 0.0102346 68.4304 0.00723697C73.4185 0.00124167 78.4066 0.00124167 83.3947 0.00423932C83.9282 0.00423932 84.4588 0.00423932 84.9924 0.00423932C85.2532 0.00423932 85.517 0.00423932 85.7868 0.00423932C87.6273 0.00423932 89.4679 0.00423932 91.3085 0.00124167C93.5537 -0.00175598 95.7989 0.00124167 98.0442 0.00423932C99.1893 0.00723697 100.331 0.00723697 101.477 0.00423932C102.721 0.00124167 103.962 0.00723697 105.206 0.0102346C105.562 0.00723697 105.922 0.00723697 106.291 0.00423932C110.922 0.0372135 114.756 1.29323 118.128 4.50971C120.973 7.42043 122.742 10.8707 122.775 14.9925C122.778 15.1903 122.781 15.3852 122.781 15.586C122.787 16.2335 122.79 16.881 122.793 17.5285C122.796 17.7473 122.796 17.9692 122.799 18.2C122.805 19.3721 122.808 20.5441 122.811 21.7162C122.814 22.9243 122.826 24.1323 122.838 25.3404C122.844 26.2697 122.847 27.2019 122.847 28.1342C122.85 28.5779 122.853 29.0245 122.859 29.4712C122.865 30.0947 122.865 30.7182 122.865 31.3417C122.865 31.8753 122.865 31.8753 122.868 32.4148C122.661 33.8177 122.001 34.738 120.991 35.7093C119.414 36.8574 117.769 37.7537 116.015 38.608C115.61 38.8088 115.61 38.8088 115.197 39.0157C113.215 39.9929 113.215 39.9929 112.532 39.9929C112.529 39.6901 112.529 39.3904 112.526 39.0786C112.517 36.2249 112.499 33.3711 112.475 30.5173C112.463 29.0515 112.454 27.5856 112.448 26.1168C112.445 24.7019 112.433 23.284 112.421 21.8661C112.415 21.3295 112.412 20.79 112.412 20.2504C112.484 15.7659 112.484 15.7659 110.338 11.9829C108.218 10.7508 106.108 10.8288 103.716 10.8378C103.341 10.8378 102.966 10.8348 102.58 10.8348C101.545 10.8318 100.508 10.8318 99.4711 10.8318C98.3529 10.8348 97.2318 10.8318 96.1137 10.8288C93.9224 10.8258 91.7311 10.8258 89.5399 10.8258C87.7592 10.8258 85.9786 10.8258 84.195 10.8228C83.8173 10.8228 83.8173 10.8228 83.4276 10.8228C82.912 10.8228 82.3964 10.8228 81.8838 10.8228C77.0516 10.8198 72.2224 10.8198 67.3902 10.8228C62.9747 10.8228 58.5561 10.8198 54.1376 10.8138C49.5991 10.8078 45.0637 10.8048 40.5252 10.8078C37.9772 10.8078 35.4292 10.8078 32.8842 10.8018C30.7139 10.7988 28.5466 10.7988 26.3793 10.8018C25.2732 10.8048 24.1671 10.8048 23.0609 10.8018C21.8619 10.7958 20.6628 10.7988 19.4638 10.8048C19.113 10.8018 18.7653 10.7988 18.4056 10.7958C16.1094 10.8138 14.4607 11.1225 12.4642 12.3216C11.0314 13.8354 10.7766 15.7359 10.8005 17.7503C10.8005 18.0831 10.8005 18.0831 10.8005 18.4218C10.7975 19.1622 10.8035 19.8997 10.8065 20.6371C10.8095 21.1707 10.8065 21.7012 10.8065 22.2348C10.8065 23.6737 10.8125 25.1126 10.8185 26.5514C10.8245 28.0563 10.8245 29.5641 10.8275 31.0689C10.8275 33.9197 10.8365 36.7674 10.8455 39.6182C10.8545 42.8617 10.8605 46.1081 10.8635 49.3516C10.8755 56.0244 10.8905 62.6971 10.9115 69.3699C11.1153 69.0851 11.3191 68.7973 11.529 68.5036C11.7988 68.1229 12.0715 67.7422 12.3413 67.3615C12.4762 67.1756 12.6111 66.9868 12.749 66.7919C13.7952 65.3261 14.8594 63.8692 15.9325 62.4183C16.2922 61.9297 16.652 61.4441 17.0117 60.9555C17.1945 60.7097 17.3744 60.4669 17.5602 60.2151C18.2677 59.2558 18.9751 58.2966 19.6796 57.3403C20.0303 56.8637 20.378 56.3901 20.7288 55.9164C21.5981 54.7384 22.4644 53.5603 23.3277 52.3792C25.3571 49.6124 27.4165 46.8725 29.5029 44.1477C30.8608 42.3701 32.1978 40.5775 33.5227 38.7759C33.6966 38.5391 33.8705 38.3052 34.0473 38.0624C34.6678 37.2201 35.2854 36.3777 35.8999 35.5354C39.9077 30.0287 39.9077 30.0287 42.9863 29.2014C45.2406 28.8866 47.0391 29.2313 48.9816 30.4004C50.6393 31.6714 51.9493 33.1073 53.1783 34.786C53.5141 35.2356 53.8498 35.6853 54.1885 36.1349C54.3624 36.3717 54.5393 36.6086 54.7191 36.8514C55.4985 37.8916 56.2869 38.9257 57.0783 39.9569C58.8709 42.3041 60.6515 44.6603 62.4201 47.0254C64.0598 49.2137 65.7295 51.375 67.4022 53.5333C67.651 53.8541 67.8998 54.1748 68.1456 54.4955C68.2685 54.6514 68.3884 54.8073 68.5143 54.9692C69.2098 55.8745 69.8932 56.7888 70.5647 57.715C70.7146 57.9219 70.8645 58.1257 71.0174 58.3385C71.3081 58.7432 71.5989 59.1449 71.8897 59.5496C72.5821 60.5688 72.5821 60.5688 73.5624 61.2762C73.6253 61.1174 73.6913 60.9585 73.7572 60.7966C74.3148 59.8014 75.0582 58.998 75.8286 58.1677C76.0684 57.9069 76.0684 57.9069 76.3142 57.6401C78.5115 55.3229 80.8676 53.7371 84.1081 53.4763C87.4025 53.5033 89.9655 54.9122 92.2977 57.1365C93.6376 58.5364 94.8367 60.0622 96.0448 61.576C95.6311 62.82 95.0855 63.5425 94.1592 64.4597C93.9014 64.7145 93.6436 64.9723 93.3768 65.2361C93.1071 65.4999 92.8373 65.7637 92.5585 66.0365C92.2947 66.2973 92.0309 66.5581 91.7611 66.8279C90.649 67.925 89.5339 69.0012 88.3468 70.0174C86.809 71.3573 85.3851 72.8022 83.9492 74.2501C83.6555 74.5438 83.3647 74.8406 83.0709 75.1344C82.1476 76.0607 81.2274 76.9869 80.3071 77.9132C79.2369 78.9894 78.1668 80.0655 77.0966 81.1387C76.6739 81.5643 76.2513 81.99 75.8286 82.4187C74.5066 83.7436 73.1697 85.0176 71.7518 86.2347C70.6247 87.2329 69.5785 88.3121 68.5203 89.3792C68.2775 89.625 68.0347 89.8678 67.7829 90.1226C67.0095 90.899 66.2391 91.6754 65.4687 92.4518C64.4495 93.477 63.4333 94.5022 62.4141 95.5244C62.1833 95.7552 61.9555 95.989 61.7186 96.2259C60.4656 97.4879 59.1826 98.6929 57.8337 99.85C57.5729 100.075 57.3181 100.303 57.0753 100.545C56.5147 100.578 55.9512 100.587 55.3906 100.59C55.0249 100.593 54.6592 100.593 54.2845 100.596C53.8738 100.596 53.4661 100.599 53.0554 100.599C52.6298 100.599 52.2011 100.602 51.7724 100.605C50.3635 100.611 48.9516 100.614 47.5428 100.617C47.0571 100.617 46.5715 100.62 46.0859 100.62C43.7987 100.626 41.5145 100.629 39.2273 100.632C36.5953 100.635 33.9634 100.644 31.3285 100.656C29.2931 100.665 27.2546 100.668 25.2192 100.671C24.0022 100.671 22.7881 100.674 21.5711 100.68C20.426 100.689 19.2779 100.689 18.1328 100.686C17.7131 100.686 17.2964 100.689 16.8798 100.692C11.9576 100.74 8.02771 99.4034 4.40955 96.049C1.22004 92.7336 0.0209839 88.7887 0.0389698 84.2532C0.0389698 83.9535 0.0389703 83.6507 0.0359726 83.3419C0.032975 82.3377 0.0359726 81.3365 0.0359726 80.3323C0.0359726 79.6099 0.0329743 78.8904 0.0329743 78.168C0.026979 76.4144 0.0269789 74.6608 0.0269789 72.9101C0.0269789 71.4832 0.0269789 70.0564 0.0269789 68.6325C0.0269789 68.4286 0.0269789 68.2248 0.0269789 68.015C0.0269789 67.6013 0.0239818 67.1906 0.0239818 66.7769C0.0209841 62.907 0.0209841 59.037 0.0239818 55.167C0.0269794 51.6328 0.020984 48.0956 0.0179863 44.5613C0.011991 40.9252 0.00899373 37.289 0.00899373 33.6529C0.00899373 31.6145 0.00899309 29.5761 0.00599544 27.5377C1.37356e-07 25.6192 0.00299779 23.7007 0.00599544 21.7852C0.00599544 21.0807 0.00599594 20.3793 0.00299829 19.6778C6.40434e-07 18.7156 0.00299779 17.7533 0.00599544 16.7911C0.00299779 16.5153 0.00299765 16.2395 0 15.9577C0.0389695 11.1495 2.14332 7.39045 5.47671 4.06006C8.98696 0.774636 13.2616 -0.0167442 17.9349 0.0102346Z" fill="#3DEBF8" stroke="#30B4F2" stroke-width="4" mask="url(#path-1-inside-1_25_2)"/>
<path d="M117.524 55.6786C119.003 55.2035 120.57 55.2562 122.242 56.2186C123.528 57.2171 124.53 58.4543 124.878 59.8856C125.013 61.0197 124.985 61.9039 124.782 62.703C124.577 63.5071 124.178 64.2911 123.483 65.1962C122.201 66.6966 120.781 68.0803 119.328 69.5155L119.325 69.5184C119.041 69.8007 118.759 70.0835 118.476 70.3651C118.194 70.6469 117.911 70.9277 117.629 71.2089L117.627 71.2108C117.261 71.5768 116.897 71.9416 116.533 72.3026L116.53 72.3055L116.03 72.8016C115.216 73.6063 114.396 74.371 113.532 75.1034L113.524 75.1102C112.146 76.3046 110.851 77.5896 109.588 78.8622L108.333 80.1278C108.015 80.4471 107.696 80.7666 107.379 81.0858C107.061 81.4046 106.744 81.7231 106.426 82.0419C105.077 83.3941 103.728 84.7497 102.38 86.1044C101.597 86.8898 100.814 87.6754 100.032 88.4608C99.2501 89.2457 98.4681 90.0304 97.6862 90.8153C97.0619 91.4397 96.4381 92.0693 95.8171 92.6932C94.2046 94.3118 92.6346 95.8781 90.9294 97.3251L90.9196 97.3339L90.9109 97.3417C89.4431 98.6535 88.0711 100.083 86.7273 101.435C86.4357 101.728 86.1432 102.022 85.8503 102.315C85.5576 102.609 85.2649 102.903 84.9724 103.197C83.728 104.444 82.4866 105.692 81.2458 106.938L81.2448 106.939C79.8065 108.387 78.3664 109.83 76.9236 111.279H76.9226C76.6364 111.567 76.3504 111.855 76.0642 112.142C75.7779 112.43 75.4911 112.718 75.2048 113.006C73.6281 114.588 72.077 116.124 70.4089 117.546L70.403 117.551C69.6045 118.242 68.8831 118.989 68.1911 119.705C68.0417 119.857 67.8933 120.01 67.7458 120.161C67.5981 120.312 67.4517 120.463 67.3044 120.613C66.849 121.078 66.394 121.548 65.9431 122.016C64.0421 123.988 63.2092 124.843 62.5173 125.303C61.9307 125.692 61.4699 125.784 60.1257 125.999C58.8965 125.994 58.0125 125.918 57.2409 125.671C56.4831 125.428 55.7696 124.999 54.9382 124.186C54.3133 123.485 53.9535 122.863 53.7458 122.219C53.5356 121.567 53.4616 120.831 53.489 119.87C53.6357 118.671 54.2314 117.604 55.0935 116.551C55.9915 115.453 57.0381 114.522 58.0915 113.436L58.0993 113.429C58.4325 113.078 58.4343 113.075 58.7722 112.72C59.1263 112.354 59.4957 111.997 59.8718 111.641H61.071V110.438C61.6977 109.785 62.3551 109.196 63.0818 108.606L63.0827 108.605C64.036 107.829 64.7846 106.96 65.5056 106.098L65.5046 106.097C66.3158 105.136 67.2006 104.3 68.1941 103.494C68.6377 103.136 68.9184 102.91 69.1726 102.653C69.2998 102.525 69.4186 102.39 69.5495 102.231L69.9997 101.669C70.5805 100.975 71.1627 100.449 71.906 99.8563L71.945 99.8231C72.5708 99.2701 73.0854 98.675 73.5739 98.0995C74.1797 97.386 74.7394 96.7886 75.4206 96.2479L75.4275 96.2421L75.4353 96.2362C76.425 95.4205 77.1583 94.539 77.8982 93.6288C78.9192 92.5775 79.9945 91.5868 81.1062 90.5878L81.1091 90.5848C82.2686 89.5344 83.3645 88.4503 84.3786 87.204C84.9905 86.5074 85.6968 85.9301 86.4968 85.2479L86.5046 85.2411C87.8436 84.0753 89.0682 82.8188 90.1999 81.452C90.7851 80.7531 91.4024 80.1526 92.114 79.5468L92.1198 79.5428C93.359 78.4724 94.5147 77.3475 95.6472 76.203C95.9534 75.8968 95.9558 75.8944 96.2673 75.58C96.7085 75.1388 97.1504 74.695 97.5886 74.2509L97.5876 74.2499L99.6775 72.1532C101.659 70.1653 103.642 68.1717 105.62 66.1815V66.1805C106.833 64.9581 108.047 63.7388 109.263 62.5194L109.265 62.5175C109.496 62.2853 109.727 62.0533 109.958 61.8212C110.189 61.5889 110.419 61.3562 110.65 61.1239L110.651 61.1229C111.292 60.4765 111.937 59.8261 112.582 59.1786C112.771 58.9891 112.96 58.797 113.149 58.6053L113.15 58.6063C114.508 57.2515 115.988 56.1721 117.524 55.6786Z" fill="#3DEBF8" stroke="#30B4F2" stroke-width="2"/>
<path d="M136.772 26.744C137.356 27.9163 137.665 29.0776 137.992 30.4911L137.996 30.5067C138.431 32.2613 139.002 34.3003 139.881 36.1786C140.758 38.0535 141.977 39.8469 143.751 41.0292L143.769 41.0419L143.789 41.0536C146.815 42.8743 149.967 44.0027 153.26 44.9745C153.526 45.054 153.797 45.1351 154.081 45.2167V45.2177C154.313 45.2865 154.55 45.3536 154.779 45.4198C155.084 45.5334 155.104 45.5473 155.131 45.5653C155.147 45.5763 155.18 45.6019 155.256 45.6727C155.283 45.698 155.311 45.7274 155.344 45.7596C155.359 45.893 155.365 45.9614 155.365 46.0292C155.365 46.1087 155.357 46.1927 155.336 46.3778C154.919 46.8288 154.473 47.0113 153.612 47.288L153.606 47.2899C153.169 47.4338 153.168 47.434 152.721 47.5809H152.72C152.417 47.6812 152.112 47.7786 151.794 47.8807L151.786 47.8837L151.779 47.8856C149.364 48.6994 146.93 49.5178 144.659 51.0497C144.47 51.1726 144.281 51.2956 144.083 51.4247L144.056 51.4413L144.032 51.4598C141.778 53.1372 140.387 55.5201 139.419 58.0038C138.46 60.4638 137.876 63.1327 137.315 65.4218C137.171 65.8927 137.14 65.976 137.105 66.035C137.085 66.0697 137.058 66.1033 136.931 66.2343C136.797 66.2528 136.736 66.2587 136.677 66.2587C136.617 66.2587 136.554 66.2528 136.425 66.2362C135.984 65.6816 135.771 65.1542 135.578 64.3348L135.576 64.33L135.371 63.5009C135.302 63.2121 135.23 62.919 135.159 62.6307L135.157 62.6229L135.156 62.6161L134.921 61.7411C133.706 57.3743 131.865 53.1653 127.626 50.452L127.608 50.4403L127.59 50.4305L127.228 50.2255C125.418 49.2283 123.529 48.6019 121.67 47.9979H121.671C120.965 47.7628 120.272 47.5344 119.574 47.3007L119.573 47.2997L118.64 46.993C118.474 46.9333 118.364 46.893 118.279 46.8602C118.266 46.8553 118.255 46.8497 118.245 46.8456C118.232 46.7628 118.229 46.724 118.229 46.6844C118.229 46.6322 118.234 46.5731 118.253 46.4442C119.404 45.6093 120.649 45.1546 122.184 44.6298L122.197 44.6249C126.827 42.9759 130.921 41.1828 133.332 36.1727L133.346 36.1444L133.358 36.1141C134.281 33.833 134.899 31.4978 135.451 29.1708C135.639 28.3963 135.773 27.8508 135.892 27.4471C136.012 27.0424 136.091 26.8804 136.134 26.8163C136.227 26.7878 136.373 26.7708 136.718 26.7382C136.736 26.7401 136.754 26.7421 136.772 26.744Z" fill="#3DEBF8" stroke="#30B4F2" stroke-width="2"/>
<path d="M121.77 82.3885L121.792 85.4198C121.801 86.5796 121.806 87.7395 121.809 88.8993V88.9139C121.816 89.3184 121.817 89.5678 121.824 89.9921C121.821 94.2805 120.57 97.4181 117.645 100.54C115.112 102.969 112.065 104.587 108.675 104.579H107.599C107.412 104.579 107.223 104.578 107.031 104.577C106.839 104.576 106.644 104.576 106.445 104.576C105.862 104.576 105.864 104.576 105.266 104.573H105.262C104.226 104.573 103.19 104.569 102.155 104.566C101.094 104.563 100.035 104.56 98.9754 104.56H98.9764C97.4988 104.558 96.0228 104.554 94.5457 104.55C96.2282 103.311 97.6339 101.82 98.9969 100.418L98.9959 100.417C99.4915 99.9124 99.9921 99.4148 100.498 98.9091L100.499 98.9071L103.119 96.2782C105.277 94.1086 107.438 91.9412 109.598 89.7772L109.6 89.7762C110.906 88.4646 112.214 87.153 113.518 85.8397L113.517 85.8387C114.783 84.57 116.047 83.3021 117.314 82.035C117.798 81.5511 118.282 81.0644 118.762 80.5819L118.763 80.5809C119.434 79.9034 120.101 79.2392 120.778 78.5594L120.777 78.5585C120.981 78.355 121.184 78.1491 121.387 77.9432C121.503 77.827 121.618 77.7127 121.734 77.5975L121.77 82.3885Z" fill="#3DEBF8" stroke="#30B4F2" stroke-width="2"/>
<path d="M80.6595 29.7334C83.9524 26.3544 89.2199 25.1896 93.2181 27.7012C95.7435 29.5939 97.2724 31.6751 97.8822 34.6973C98.2181 37.4079 97.7557 39.7606 96.2504 41.9785C94.5471 44.0872 92.6897 45.686 90.225 46.0967C87.1128 46.3518 84.6772 46.2477 82.3763 44.4941C79.9817 42.4261 78.6196 40.4929 78.3588 37.498C78.2387 34.4289 78.792 32.0687 80.6595 29.7334Z" fill="#3DEBF8" stroke="#30B4F2" stroke-width="2"/>
<path d="M188.152 31.5938C188.152 30.2266 188.82 29.543 190.154 29.543H230.34C231.674 29.543 232.342 30.2266 232.342 31.5938C232.342 32.8307 232.342 34.1328 232.342 35.5C232.374 36.8346 232.342 38.1204 232.244 39.3574C232.146 40.6595 231.479 41.3105 230.242 41.3105H201.189C200.799 41.3105 200.604 41.5059 200.604 41.8965C200.604 44.5983 200.604 47.3164 200.604 50.0508C200.636 52.7526 200.652 55.4544 200.652 58.1562C200.652 58.5469 200.848 58.7422 201.238 58.7422H225.994C227.329 58.7422 227.996 59.4095 227.996 60.7441V68.4102C227.996 69.7448 227.329 70.4121 225.994 70.4121H201.238C200.848 70.4121 200.652 70.6074 200.652 70.998C200.652 73.8301 200.652 76.6621 200.652 79.4941C200.652 82.2936 200.636 85.1094 200.604 87.9414C200.571 89.276 200.555 90.627 200.555 91.9941C200.587 93.3288 200.571 94.6634 200.506 95.998C200.408 97.3327 199.741 98 198.504 98H190.105C188.771 98 188.104 97.3164 188.104 95.9492C188.104 94.1589 188.12 92.3848 188.152 90.627C188.217 88.8366 188.266 87.0462 188.299 85.2559C188.396 77.7689 188.445 70.2982 188.445 62.8438C188.445 57.6029 188.396 52.3945 188.299 47.2188C188.201 42.0104 188.152 36.8021 188.152 31.5938ZM257.439 98.9277C253.208 98.9277 249.66 97.9186 246.795 95.9004C243.93 93.8822 241.766 91.2129 240.301 87.8926C238.868 84.5397 238.152 80.9102 238.152 77.0039V76.2227C238.217 72.1211 239.064 68.2637 240.691 64.6504C242.352 61.0371 244.744 58.1237 247.869 55.9102C250.994 53.6641 254.77 52.541 259.197 52.541C261.932 52.541 264.471 53.0618 266.814 54.1035C269.191 55.1126 271.404 56.4961 273.455 58.2539C273.683 58.4818 273.878 58.5957 274.041 58.5957C274.432 58.5957 274.611 58.1888 274.578 57.375C274.578 56.5612 274.692 55.7474 274.92 54.9336C275.18 54.1198 275.831 53.7129 276.873 53.7129H283.758C285.092 53.7129 285.76 54.3802 285.76 55.7148C285.76 57.1146 285.743 58.5143 285.711 59.9141C285.711 61.3138 285.711 62.7135 285.711 64.1133C285.711 67.694 285.727 71.291 285.76 74.9043C285.825 78.5176 285.874 82.1146 285.906 85.6953C285.939 87.388 285.971 89.097 286.004 90.8223C286.069 92.515 286.102 94.224 286.102 95.9492C286.102 97.3164 285.434 98 284.1 98H276.434C275.555 98 274.985 97.7233 274.725 97.1699C274.464 96.584 274.35 95.9004 274.383 95.1191C274.415 94.3379 274.415 93.638 274.383 93.0195C274.383 92.9219 274.367 92.7591 274.334 92.5312C274.301 92.3034 274.204 92.1895 274.041 92.1895C273.911 92.1895 273.781 92.2383 273.65 92.3359C273.553 92.4336 273.455 92.515 273.357 92.5801C271.079 94.5007 268.621 96.0469 265.984 97.2188C263.348 98.3581 260.499 98.9277 257.439 98.9277ZM262.42 88.5273C264.731 88.5273 266.863 88.0553 268.816 87.1113C270.802 86.1348 272.348 84.6048 273.455 82.5215C273.52 82.3913 273.667 82.0658 273.895 81.5449C274.155 80.9915 274.285 80.6497 274.285 80.5195C274.285 79.3802 274.269 78.2409 274.236 77.1016C274.236 75.9622 274.236 74.8392 274.236 73.7324C274.236 73.2116 274.253 72.6419 274.285 72.0234C274.318 71.3724 274.301 70.8027 274.236 70.3145C274.204 70.0866 274.074 69.7448 273.846 69.2891C273.65 68.8333 273.504 68.5078 273.406 68.3125C272.267 66.2617 270.656 64.7318 268.572 63.7227C266.489 62.7135 264.308 62.209 262.029 62.209C259.62 62.209 257.505 62.8112 255.682 64.0156C253.859 65.2201 252.426 66.8151 251.385 68.8008C250.376 70.7539 249.871 72.9023 249.871 75.2461C249.871 77.5898 250.408 79.7708 251.482 81.7891C252.557 83.8073 254.038 85.4349 255.926 86.6719C257.846 87.9089 260.011 88.5273 262.42 88.5273ZM343.377 75.9785C343.377 80.1777 342.498 84.0189 340.74 87.502C338.982 90.985 336.492 93.7682 333.27 95.8516C330.047 97.9023 326.238 98.9277 321.844 98.9277C316.538 98.9277 311.997 97.2513 308.221 93.8984C308.123 93.8333 308.009 93.752 307.879 93.6543C307.781 93.5241 307.651 93.459 307.488 93.459C307.326 93.459 307.228 93.5892 307.195 93.8496C307.163 94.0775 307.146 94.2402 307.146 94.3379C307.146 95.1191 307.114 95.9329 307.049 96.7793C306.984 97.5931 306.382 98 305.242 98H297.43C296.095 98 295.428 97.3164 295.428 95.9492C295.428 94.1589 295.444 92.3848 295.477 90.627C295.542 88.8366 295.59 87.0462 295.623 85.2559C295.688 81.5124 295.737 77.7689 295.77 74.0254C295.802 70.2819 295.818 66.5384 295.818 62.7949C295.818 59.0514 295.802 55.3079 295.77 51.5645C295.737 47.821 295.688 44.0775 295.623 40.334C295.59 38.5436 295.542 36.7695 295.477 35.0117C295.444 33.2214 295.428 31.431 295.428 29.6406C295.428 28.2734 296.095 27.5898 297.43 27.5898H304.998C305.779 27.5898 306.284 27.7526 306.512 28.0781C306.772 28.4036 306.935 28.9082 307 29.5918C307.13 30.6335 307.163 32.0495 307.098 33.8398C307.065 35.6302 307.065 37.1113 307.098 38.2832C307.13 41.3431 307.146 44.3867 307.146 47.4141C307.179 50.4414 307.195 53.485 307.195 56.5449C307.195 56.6751 307.212 56.8379 307.244 57.0332C307.277 57.2285 307.391 57.3262 307.586 57.3262C307.749 57.3262 307.96 57.2285 308.221 57.0332C312.452 54.0384 317.156 52.541 322.332 52.541C326.954 52.541 330.812 53.599 333.904 55.7148C337.029 57.7982 339.389 60.6139 340.984 64.1621C342.579 67.7103 343.377 71.6491 343.377 75.9785ZM319.549 88.1367C321.958 88.1367 324.074 87.5345 325.896 86.3301C327.719 85.1257 329.135 83.5306 330.145 81.5449C331.186 79.5592 331.707 77.4108 331.707 75.0996C331.707 72.7559 331.202 70.5911 330.193 68.6055C329.184 66.5872 327.768 64.9596 325.945 63.7227C324.155 62.4857 322.023 61.8672 319.549 61.8672C317.335 61.8672 315.203 62.3555 313.152 63.332C311.134 64.276 309.539 65.7246 308.367 67.6777C308.237 67.9056 308.042 68.2799 307.781 68.8008C307.521 69.3216 307.358 69.7122 307.293 69.9727C307.228 70.3633 307.212 70.819 307.244 71.3398C307.277 71.8607 307.293 72.3327 307.293 72.7559C307.293 73.9928 307.293 75.2461 307.293 76.5156C307.293 77.7526 307.277 78.9896 307.244 80.2266C308.286 82.8958 309.897 84.8815 312.078 86.1836C314.259 87.4857 316.749 88.1367 319.549 88.1367ZM351.434 29.5918C351.434 28.2572 352.101 27.5898 353.436 27.5898H361.15C362.485 27.5898 363.152 28.2572 363.152 29.5918C363.152 35.1257 363.136 40.6595 363.104 46.1934C363.071 51.7272 363.055 57.2611 363.055 62.7949C363.055 68.3288 363.071 73.8626 363.104 79.3965C363.136 84.9303 363.152 90.4642 363.152 95.998C363.152 97.3327 362.485 98 361.15 98H353.436C352.101 98 351.434 97.3327 351.434 95.998C351.434 90.4642 351.45 84.9303 351.482 79.3965C351.515 73.8626 351.531 68.3288 351.531 62.7949C351.531 57.2611 351.515 51.7272 351.482 46.1934C351.45 40.6595 351.434 35.1257 351.434 29.5918ZM394.744 99.1719C389.992 99.1719 385.841 98.2279 382.293 96.3398C378.777 94.4518 376.043 91.7663 374.09 88.2832C372.137 84.8001 371.16 80.666 371.16 75.8809C371.16 71.4212 372.088 67.4173 373.943 63.8691C375.799 60.321 378.419 57.5215 381.805 55.4707C385.19 53.3874 389.161 52.3457 393.719 52.3457C399.35 52.3457 403.761 53.9245 406.951 57.082C410.174 60.2396 412.355 64.4388 413.494 69.6797C413.527 69.7773 413.543 69.9401 413.543 70.168C413.543 70.6562 413.413 71.0306 413.152 71.291C412.924 71.5189 412.615 71.7142 412.225 71.877C411.118 72.3978 409.946 72.8535 408.709 73.2441C407.472 73.6348 406.268 74.0579 405.096 74.5137C401.678 75.7832 398.243 77.0365 394.793 78.2734C391.342 79.4779 387.924 80.7637 384.539 82.1309C384.279 82.2611 384.148 82.4238 384.148 82.6191C384.148 82.7168 384.181 82.8307 384.246 82.9609C385.548 85.3047 387.339 87.0462 389.617 88.1855C391.896 89.3249 394.337 89.8945 396.941 89.8945C398.992 89.8945 400.896 89.569 402.654 88.918C404.445 88.2669 406.202 87.4531 407.928 86.4766C408.156 86.3464 408.383 86.2324 408.611 86.1348C408.839 86.0371 409.067 85.9883 409.295 85.9883C409.751 85.9883 410.092 86.1348 410.32 86.4277C410.581 86.6882 410.792 86.9974 410.955 87.3555C411.085 87.5833 411.329 88.1042 411.688 88.918C412.078 89.6992 412.436 90.4967 412.762 91.3105C413.12 92.0918 413.299 92.5964 413.299 92.8242C413.299 93.1823 413.201 93.4753 413.006 93.7031C412.811 93.931 412.583 94.1426 412.322 94.3379C410.011 95.9329 407.195 97.1374 403.875 97.9512C400.587 98.765 397.544 99.1719 394.744 99.1719ZM382.488 75.3926C385.776 74.2533 389.064 73.1139 392.352 71.9746C395.639 70.8353 398.911 69.696 402.166 68.5566C401.352 66.7663 400.213 65.2038 398.748 63.8691C397.316 62.5345 395.542 61.8672 393.426 61.8672C390.952 61.8672 388.901 62.5345 387.273 63.8691C385.646 65.2038 384.441 66.9128 383.66 68.9961C382.879 71.0469 382.488 73.179 382.488 75.3926ZM420.477 98C420.021 98 419.533 97.9349 419.012 97.8047C418.491 97.6419 418.23 97.2513 418.23 96.6328C418.23 96.3724 418.279 96.112 418.377 95.8516C418.475 95.5911 418.572 95.347 418.67 95.1191C421.535 88.9342 424.367 82.7493 427.166 76.5645C429.998 70.3796 432.781 64.1621 435.516 57.9121C437.762 52.7689 439.992 47.6257 442.205 42.4824C444.419 37.3066 446.697 32.1797 449.041 27.1016C449.139 26.9062 449.301 26.8086 449.529 26.8086C449.757 26.8086 449.92 26.9062 450.018 27.1016C452.361 32.1797 454.64 37.3066 456.854 42.4824C459.067 47.6257 461.297 52.7689 463.543 57.9121C466.277 64.1621 469.044 70.3796 471.844 76.5645C474.676 82.7493 477.524 88.9342 480.389 95.1191C480.486 95.347 480.584 95.5911 480.682 95.8516C480.779 96.112 480.828 96.3724 480.828 96.6328C480.828 97.2513 480.568 97.6419 480.047 97.8047C479.526 97.9349 479.038 98 478.582 98H468.719C467.905 98 467.286 97.5931 466.863 96.7793C466.603 96.2585 466.359 95.7051 466.131 95.1191C465.903 94.5332 465.675 93.9798 465.447 93.459C464.731 91.8314 464.031 90.1712 463.348 88.4785C462.697 86.7858 461.997 85.1257 461.248 83.498C461.15 83.2376 460.971 83.1074 460.711 83.1074H436.541C436.281 83.1074 436.102 83.2376 436.004 83.498C435.223 85.1257 434.474 86.7858 433.758 88.4785C433.074 90.1712 432.358 91.8477 431.609 93.5078C431.382 94.0286 431.137 94.582 430.877 95.168C430.649 95.7539 430.389 96.3073 430.096 96.8281C429.673 97.6094 429.07 98 428.289 98H420.477ZM440.594 72.9023H456.854C455.551 69.6471 454.233 66.4082 452.898 63.1855C451.564 59.9303 450.229 56.6751 448.895 53.4199C447.527 56.6751 446.144 59.9303 444.744 63.1855C443.377 66.4082 441.993 69.6471 440.594 72.9023ZM488.104 31.5449C488.104 30.2103 488.771 29.543 490.105 29.543H498.553C499.887 29.543 500.555 30.2103 500.555 31.5449C500.555 36.916 500.538 42.2871 500.506 47.6582C500.473 53.0293 500.457 58.4004 500.457 63.7715C500.457 69.1426 500.473 74.5137 500.506 79.8848C500.538 85.2559 500.555 90.627 500.555 95.998C500.555 97.3327 499.887 98 498.553 98H490.105C488.771 98 488.104 97.3327 488.104 95.998C488.104 90.627 488.12 85.2559 488.152 79.8848C488.185 74.5137 488.201 69.1426 488.201 63.7715C488.201 58.4004 488.185 53.0293 488.152 47.6582C488.12 42.2871 488.104 36.916 488.104 31.5449Z" fill="white"/>
</svg>
