<svg width="443" height="132" viewBox="0 0 443 132" fill="none" xmlns="http://www.w3.org/2000/svg">
<path d="M17.9349 5.01023C18.3246 5.01023 18.7143 5.00724 19.116 5.00724C20.1892 5.00124 21.2593 5.00424 22.3325 5.00724C23.4926 5.01023 24.6527 5.00724 25.8098 5.00424C28.079 4.99824 30.3482 5.00124 32.6144 5.00424C34.461 5.00424 36.3046 5.00424 38.1481 5.00424C38.4119 5.00424 38.6757 5.00424 38.9455 5.00424C39.4791 5.00424 40.0156 5.00424 40.5492 5.00424C45.5523 5.00124 50.5584 5.00424 55.5645 5.00724C59.8541 5.01323 64.1437 5.01023 68.4304 5.00724C73.4185 5.00124 78.4066 5.00124 83.3947 5.00424C83.9282 5.00424 84.4588 5.00424 84.9924 5.00424C85.2532 5.00424 85.517 5.00424 85.7868 5.00424C87.6273 5.00424 89.4679 5.00424 91.3085 5.00124C93.5537 4.99824 95.7989 5.00124 98.0442 5.00424C99.1893 5.00724 100.331 5.00724 101.477 5.00424C102.721 5.00124 103.962 5.00724 105.206 5.01023C105.562 5.00724 105.922 5.00724 106.291 5.00424C110.922 5.03721 114.756 6.29323 118.128 9.50971C120.973 12.4204 122.742 15.8707 122.775 19.9925C122.778 20.1903 122.781 20.3852 122.781 20.586C122.787 21.2335 122.79 21.881 122.793 22.5285C122.796 22.7473 122.796 22.9692 122.799 23.2C122.805 24.3721 122.808 25.5441 122.811 26.7162C122.814 27.9243 122.826 29.1323 122.838 30.3404C122.844 31.2697 122.847 32.2019 122.847 33.1342C122.85 33.5779 122.853 34.0245 122.859 34.4712C122.865 35.0947 122.865 35.7182 122.865 36.3417C122.865 36.8753 122.865 36.8753 122.868 37.4148C122.661 38.8177 122.001 39.738 120.991 40.7093C119.414 41.8574 117.769 42.7537 116.015 43.608C115.61 43.8088 115.61 43.8088 115.197 44.0157C113.215 44.9929 113.215 44.9929 112.532 44.9929C112.529 44.6901 112.529 44.3904 112.526 44.0786C112.517 41.2249 112.499 38.3711 112.475 35.5173C112.463 34.0515 112.454 32.5856 112.448 31.1168C112.445 29.7019 112.433 28.284 112.421 26.8661C112.415 26.3295 112.412 25.79 112.412 25.2504C112.484 20.7659 112.484 20.7659 110.338 16.9829C108.218 15.7508 106.108 15.8288 103.716 15.8378C103.341 15.8378 102.966 15.8348 102.58 15.8348C101.545 15.8318 100.508 15.8318 99.4711 15.8318C98.3529 15.8348 97.2318 15.8318 96.1137 15.8288C93.9224 15.8258 91.7311 15.8258 89.5399 15.8258C87.7592 15.8258 85.9786 15.8258 84.195 15.8228C83.8173 15.8228 83.8173 15.8228 83.4276 15.8228C82.912 15.8228 82.3964 15.8228 81.8838 15.8228C77.0516 15.8198 72.2224 15.8198 67.3902 15.8228C62.9747 15.8228 58.5561 15.8198 54.1376 15.8138C49.5991 15.8078 45.0637 15.8048 40.5252 15.8078C37.9772 15.8078 35.4292 15.8078 32.8842 15.8018C30.7139 15.7988 28.5466 15.7988 26.3793 15.8018C25.2732 15.8048 24.1671 15.8048 23.0609 15.8018C21.8619 15.7958 20.6628 15.7988 19.4638 15.8048C19.113 15.8018 18.7653 15.7988 18.4056 15.7958C16.1094 15.8138 14.4607 16.1225 12.4642 17.3216C11.0314 18.8354 10.7766 20.7359 10.8005 22.7503C10.8005 23.0831 10.8005 23.0831 10.8005 23.4218C10.7975 24.1622 10.8035 24.8997 10.8065 25.6371C10.8095 26.1707 10.8065 26.7012 10.8065 27.2348C10.8065 28.6737 10.8125 30.1126 10.8185 31.5514C10.8245 33.0563 10.8245 34.5641 10.8275 36.0689C10.8275 38.9197 10.8365 41.7674 10.8455 44.6182C10.8545 47.8617 10.8605 51.1081 10.8635 54.3516C10.8755 61.0244 10.8905 67.6971 10.9115 74.3699C11.1153 74.0851 11.3191 73.7973 11.529 73.5036C11.7988 73.1229 12.0715 72.7422 12.3413 72.3615C12.4762 72.1756 12.6111 71.9868 12.749 71.7919C13.7952 70.3261 14.8594 68.8692 15.9325 67.4183C16.2922 66.9297 16.652 66.4441 17.0117 65.9555C17.1945 65.7097 17.3744 65.4669 17.5602 65.2151C18.2677 64.2558 18.9751 63.2966 19.6796 62.3403C20.0303 61.8637 20.378 61.3901 20.7288 60.9164C21.5981 59.7384 22.4644 58.5603 23.3277 57.3792C25.3571 54.6124 27.4165 51.8725 29.5029 49.1477C30.8608 47.3701 32.1978 45.5775 33.5227 43.7759C33.6966 43.5391 33.8705 43.3052 34.0473 43.0624C34.6678 42.2201 35.2854 41.3777 35.8999 40.5354C39.9077 35.0287 39.9077 35.0287 42.9863 34.2014C45.2406 33.8866 47.0391 34.2313 48.9816 35.4004C50.6393 36.6714 51.9493 38.1073 53.1783 39.786C53.5141 40.2356 53.8498 40.6853 54.1885 41.1349C54.3624 41.3717 54.5393 41.6086 54.7191 41.8514C55.4985 42.8916 56.2869 43.9257 57.0783 44.9569C58.8709 47.3041 60.6515 49.6603 62.4201 52.0254C64.0598 54.2137 65.7295 56.375 67.4022 58.5333C67.651 58.8541 67.8998 59.1748 68.1456 59.4955C68.2685 59.6514 68.3884 59.8073 68.5143 59.9692C69.2098 60.8745 69.8932 61.7888 70.5647 62.715C70.7146 62.9219 70.8645 63.1257 71.0174 63.3385C71.3081 63.7432 71.5989 64.1449 71.8897 64.5496C72.5821 65.5688 72.5821 65.5688 73.5624 66.2762C73.6253 66.1174 73.6913 65.9585 73.7572 65.7966C74.3148 64.8014 75.0582 63.998 75.8286 63.1677C76.0684 62.9069 76.0684 62.9069 76.3142 62.6401C78.5115 60.3229 80.8676 58.7371 84.1081 58.4763C87.4025 58.5033 89.9655 59.9122 92.2977 62.1365C93.6376 63.5364 94.8367 65.0622 96.0448 66.576C95.6311 67.82 95.0855 68.5425 94.1592 69.4597C93.9014 69.7145 93.6436 69.9723 93.3768 70.2361C93.1071 70.4999 92.8373 70.7637 92.5585 71.0365C92.2947 71.2973 92.0309 71.5581 91.7611 71.8279C90.649 72.925 89.5339 74.0012 88.3468 75.0174C86.809 76.3573 85.3851 77.8022 83.9492 79.2501C83.6555 79.5438 83.3647 79.8406 83.0709 80.1344C82.1476 81.0607 81.2274 81.9869 80.3071 82.9132C79.2369 83.9894 78.1668 85.0655 77.0966 86.1387C76.6739 86.5643 76.2513 86.99 75.8286 87.4187C74.5066 88.7436 73.1697 90.0176 71.7518 91.2347C70.6247 92.2329 69.5785 93.3121 68.5203 94.3792C68.2775 94.625 68.0347 94.8678 67.7829 95.1226C67.0095 95.899 66.2391 96.6754 65.4687 97.4518C64.4495 98.477 63.4333 99.5022 62.4141 100.524C62.1833 100.755 61.9555 100.989 61.7186 101.226C60.4656 102.488 59.1826 103.693 57.8337 104.85C57.5729 105.075 57.3181 105.303 57.0753 105.545C56.5147 105.578 55.9512 105.587 55.3906 105.59C55.0249 105.593 54.6592 105.593 54.2845 105.596C53.8738 105.596 53.4661 105.599 53.0554 105.599C52.6298 105.599 52.2011 105.602 51.7724 105.605C50.3635 105.611 48.9516 105.614 47.5428 105.617C47.0571 105.617 46.5715 105.62 46.0859 105.62C43.7987 105.626 41.5145 105.629 39.2273 105.632C36.5953 105.635 33.9634 105.644 31.3285 105.656C29.2931 105.665 27.2546 105.668 25.2192 105.671C24.0022 105.671 22.7881 105.674 21.5711 105.68C20.426 105.689 19.2779 105.689 18.1328 105.686C17.7131 105.686 17.2964 105.689 16.8798 105.692C11.9576 105.74 8.02771 104.403 4.40955 101.049C1.22004 97.7336 0.0209839 93.7887 0.0389698 89.2532C0.0389698 88.9535 0.0389703 88.6507 0.0359726 88.3419C0.032975 87.3377 0.0359726 86.3365 0.0359726 85.3323C0.0359726 84.6099 0.0329743 83.8904 0.0329743 83.168C0.026979 81.4144 0.0269789 79.6608 0.0269789 77.9101C0.0269789 76.4832 0.0269789 75.0564 0.0269789 73.6325C0.0269789 73.4286 0.0269789 73.2248 0.0269789 73.015C0.0269789 72.6013 0.0239818 72.1906 0.0239818 71.7769C0.0209841 67.907 0.0209841 64.037 0.0239818 60.167C0.0269794 56.6328 0.020984 53.0956 0.0179863 49.5613C0.011991 45.9252 0.00899373 42.289 0.00899373 38.6529C0.00899373 36.6145 0.00899309 34.5761 0.00599544 32.5377C1.37356e-07 30.6192 0.00299779 28.7007 0.00599544 26.7852C0.00599544 26.0807 0.00599594 25.3793 0.00299829 24.6778C6.40434e-07 23.7156 0.00299779 22.7533 0.00599544 21.7911C0.00299779 21.5153 0.00299765 21.2395 0 20.9577C0.0389695 16.1495 2.14332 12.3905 5.47671 9.06006C8.98696 5.77464 13.2616 4.98326 17.9349 5.01023Z" fill="#30B4F2"/>
<path d="M122.797 60.3831C124.224 61.4773 125.45 62.9251 125.864 64.7057C126.17 67.1818 125.789 68.8425 124.266 70.8209C122.944 72.3707 121.481 73.7946 120.031 75.2275C119.464 75.791 118.9 76.3546 118.334 76.9182C117.968 77.2839 117.602 77.6496 117.237 78.0123C116.988 78.2611 116.988 78.2611 116.733 78.5129C115.906 79.3313 115.066 80.1137 114.179 80.8661C112.377 82.4278 110.723 84.1455 109.041 85.8332C108.406 86.4717 107.77 87.1102 107.135 87.7487C105.786 89.1006 104.437 90.4556 103.088 91.8105C101.523 93.3813 99.9582 94.952 98.3935 96.5228C97.7699 97.1463 97.1494 97.7728 96.5259 98.3993C94.9162 100.015 93.3184 101.61 91.5768 103.088C90.1379 104.374 88.798 105.771 87.437 107.14C86.8525 107.728 86.265 108.316 85.6804 108.903C84.4364 110.15 83.1954 111.397 81.9543 112.644C80.5155 114.092 79.0736 115.537 77.6317 116.985C77.0592 117.56 76.4866 118.136 75.9141 118.711C74.3373 120.294 72.7605 121.856 71.0579 123.307C70.2965 123.966 69.604 124.683 68.9056 125.405C68.6088 125.708 68.315 126.011 68.0182 126.313C67.5656 126.775 67.113 127.243 66.6633 127.71C62.9492 131.562 62.9492 131.562 60.2034 132C57.6164 131.997 56.0726 131.703 54.2201 129.884C52.7902 128.292 52.4245 126.883 52.4904 124.794C52.8292 121.829 55.4011 119.773 57.3736 117.74C57.7093 117.386 57.7093 117.386 58.0541 117.024C58.5127 116.55 58.9893 116.091 59.4719 115.642C59.6698 115.642 59.8676 115.642 60.0715 115.642C60.0715 115.444 60.0715 115.246 60.0715 115.042C60.8179 114.23 61.5943 113.525 62.4516 112.83C63.3239 112.12 64.0194 111.316 64.7388 110.456C65.5991 109.437 66.5314 108.555 67.5656 107.716C68.4859 106.973 68.4859 106.973 69.2143 106.049C69.8588 105.276 70.5003 104.697 71.2827 104.074C71.8492 103.573 72.3229 103.028 72.8115 102.452C73.435 101.718 74.0435 101.064 74.7989 100.465C75.7192 99.7063 76.4057 98.8819 77.1581 97.9557C78.2103 96.8705 79.3134 95.8543 80.4375 94.8441C81.5856 93.8039 82.6498 92.7488 83.627 91.5437C84.2985 90.7793 85.0749 90.1468 85.8483 89.4873C87.1463 88.3572 88.3333 87.1401 89.4305 85.8152C90.06 85.0628 90.7195 84.4213 91.4659 83.7858C92.6769 82.7396 93.813 81.6365 94.9372 80.5004C95.2459 80.1916 95.2459 80.1916 95.5577 79.8768C95.9983 79.4362 96.439 78.9925 96.8766 78.5489C97.5721 77.8474 98.2706 77.149 98.969 76.4475C100.95 74.4601 102.932 72.4666 104.91 70.4762C106.124 69.2532 107.338 68.0331 108.555 66.8131C109.017 66.3484 109.479 65.8838 109.94 65.4192C110.582 64.7717 111.229 64.1212 111.874 63.4737C112.063 63.2848 112.252 63.093 112.443 62.8981C115.27 60.0774 118.897 58.0989 122.797 60.3831Z" fill="#30B4F2"/>
<path d="M136.718 30.7333C136.946 30.7573 137.176 30.7812 137.41 30.8082C138.226 32.2681 138.594 33.659 138.966 35.2657C139.829 38.746 141.178 43.1136 144.305 45.1969C147.224 46.9536 150.282 48.0537 153.544 49.016C153.813 49.0969 154.083 49.1778 154.365 49.2588C154.608 49.3307 154.851 49.3996 155.099 49.4716C155.696 49.6934 155.696 49.6934 156.295 50.2929C156.388 51.0244 156.388 51.0244 156.295 51.7918C155.627 52.6461 154.934 52.9129 153.918 53.2396C153.481 53.3835 153.481 53.3835 153.034 53.5304C152.725 53.6323 152.416 53.7313 152.099 53.8332C149.662 54.6545 147.35 55.4369 145.204 56.8878C145.015 57.0107 144.826 57.1336 144.629 57.2625C140.54 60.3051 139.425 66.0216 138.28 70.692C138.01 71.5763 138.01 71.5763 137.41 72.1758C136.682 72.2867 136.682 72.2867 135.911 72.1758C135.168 71.3574 134.856 70.632 134.604 69.5648C134.538 69.2921 134.469 69.0193 134.401 68.7405C134.332 68.4527 134.26 68.1619 134.188 67.8682C132.986 63.2458 131.274 58.9741 127.086 56.2942C125.27 55.2361 123.348 54.5946 121.355 53.9471C120.653 53.7133 119.955 53.4825 119.256 53.2486C118.951 53.1467 118.645 53.0478 118.327 52.9429C117.626 52.6911 117.626 52.6911 117.326 52.3913C117.197 51.6988 117.197 51.6988 117.326 50.8925C118.714 49.7863 120.195 49.2528 121.861 48.6832C126.466 47.0435 130.207 45.3618 132.431 40.7394C133.324 38.5302 133.93 36.2549 134.478 33.9408C135.225 30.8712 135.225 30.8712 136.718 30.7333Z" fill="#30B4F2"/>
<path d="M122.722 80.869C122.743 83.0393 122.758 85.2096 122.77 87.3829C122.773 88.3901 122.779 89.3973 122.791 90.4075C122.8 91.5706 122.806 92.7337 122.809 93.8968C122.815 94.2535 122.818 94.6103 122.824 94.976C122.824 99.5354 121.472 102.926 118.361 106.241C115.702 108.798 112.411 110.588 108.672 110.579C108.319 110.579 107.965 110.579 107.599 110.579C107.219 110.579 106.838 110.576 106.445 110.576C105.861 110.576 105.861 110.576 105.261 110.573C104.224 110.573 103.187 110.57 102.153 110.567C101.091 110.564 100.033 110.561 98.975 110.561C96.8977 110.558 94.8233 110.552 92.7459 110.546C92.7459 110.249 92.7459 109.952 92.7459 109.646C93.1446 109.293 93.1446 109.293 93.7201 108.915C95.4228 107.707 96.8287 106.214 98.2796 104.721C98.7802 104.212 99.2838 103.708 99.7904 103.202C100.663 102.326 101.535 101.451 102.41 100.573C104.569 98.4023 106.73 96.235 108.891 94.0707C110.198 92.7577 111.505 91.4477 112.809 90.1348C114.074 88.8668 115.339 87.5957 116.607 86.3277C117.09 85.8451 117.572 85.3595 118.052 84.8769C118.724 84.1994 119.398 83.5279 120.07 82.8535C120.27 82.6526 120.471 82.4488 120.675 82.2419C120.858 82.0591 121.041 81.8762 121.23 81.6904C121.388 81.5315 121.547 81.3696 121.712 81.2078C122.123 80.869 122.123 80.869 122.722 80.869Z" fill="#30B4F2"/>
<path d="M93.7787 31.8715C96.4915 33.8949 98.2062 36.1911 98.8717 39.5395C99.2434 42.4862 98.7398 45.1121 97.0551 47.5762C95.2835 49.7764 93.2091 51.629 90.3464 52.0906C87.1598 52.3544 84.378 52.2885 81.7491 50.2741C79.2191 48.0948 77.6483 45.9335 77.3605 42.5641C77.2286 39.2907 77.8252 36.6587 79.9085 34.0718C83.4607 30.3966 89.2792 29.0237 93.7787 31.8715Z" fill="#30B4F2"/>
<path d="M232.146 74.6191C232.602 74.6191 232.944 74.7819 233.172 75.1074C233.432 75.4004 233.66 75.7259 233.855 76.084C234.051 76.4095 234.441 77.1745 235.027 78.3789C235.613 79.5508 236.167 80.7227 236.688 81.8945C237.208 83.0339 237.469 83.7337 237.469 83.9941C237.469 84.4824 237.192 84.9544 236.639 85.4102C234.327 87.168 231.447 88.5026 227.996 89.4141C224.546 90.293 221.372 90.7324 218.475 90.7324C211.639 90.7324 205.763 89.1862 200.848 86.0938C195.965 83.0013 192.205 78.8184 189.568 73.5449C186.964 68.2715 185.662 62.347 185.662 55.7715C185.662 51.0514 186.346 46.5918 187.713 42.3926C189.113 38.1608 191.147 34.4336 193.816 31.2109C196.486 27.9557 199.757 25.4167 203.631 23.5938C207.537 21.7383 211.997 20.8105 217.01 20.8105C219.972 20.8105 223.13 21.2174 226.482 22.0312C229.835 22.8451 232.749 24.0658 235.223 25.6934C235.874 26.1165 236.199 26.6048 236.199 27.1582C236.199 27.321 236.036 27.793 235.711 28.5742C235.418 29.3555 235.06 30.2507 234.637 31.2598C234.214 32.2363 233.807 33.1315 233.416 33.9453C233.058 34.7591 232.814 35.2962 232.684 35.5566C232.521 35.8822 232.309 36.224 232.049 36.582C231.821 36.9076 231.479 37.0703 231.023 37.0703C230.73 37.0703 230.454 37.0052 230.193 36.875C229.965 36.7122 229.721 36.5658 229.461 36.4355C227.605 35.2637 225.717 34.3359 223.797 33.6523C221.909 32.9362 219.842 32.5781 217.596 32.5781C214.568 32.5781 211.867 33.2617 209.49 34.6289C207.114 35.9635 205.096 37.7539 203.436 40C201.808 42.2461 200.571 44.7363 199.725 47.4707C198.878 50.2051 198.455 52.9395 198.455 55.6738C198.455 59.8079 199.171 63.6491 200.604 67.1973C202.068 70.7129 204.282 73.5612 207.244 75.7422C210.206 77.8906 213.934 78.9648 218.426 78.9648C220.704 78.9648 222.804 78.6556 224.725 78.0371C226.678 77.4186 228.598 76.5072 230.486 75.3027C230.747 75.14 231.007 74.9935 231.268 74.8633C231.528 74.7005 231.821 74.6191 232.146 74.6191ZM254.607 45.7129C255.844 45.7129 256.512 46.3151 256.609 47.5195L257.098 53.0859C257.098 53.1185 257.13 53.3626 257.195 53.8184C257.26 54.2415 257.374 54.4531 257.537 54.4531C257.7 54.4531 257.863 54.2741 258.025 53.916C258.221 53.5579 258.335 53.3464 258.367 53.2812C259.702 50.7747 261.329 48.8053 263.25 47.373C265.171 45.9408 267.596 45.2246 270.525 45.2246C271.209 45.2246 272.072 45.2897 273.113 45.4199C274.188 45.5176 274.725 46.0547 274.725 47.0312C274.725 47.5195 274.627 48.2845 274.432 49.3262C274.236 50.3678 274.008 51.4258 273.748 52.5C273.52 53.5417 273.341 54.3392 273.211 54.8926C273.081 55.446 272.869 55.8854 272.576 56.2109C272.316 56.5039 271.86 56.6504 271.209 56.6504C270.883 56.6504 270.558 56.6341 270.232 56.6016C269.939 56.5365 269.614 56.5039 269.256 56.5039C266.684 56.5039 264.52 57.3177 262.762 58.9453C261.004 60.5404 259.686 62.5098 258.807 64.8535C257.928 67.1973 257.488 69.5085 257.488 71.7871V87.998C257.488 89.3327 256.821 90 255.486 90H247.918C246.583 90 245.916 89.3164 245.916 87.9492C245.916 82.9036 245.932 77.8743 245.965 72.8613C246.03 67.8158 246.062 62.7865 246.062 57.7734V47.7148C246.062 46.3802 246.73 45.7129 248.064 45.7129H254.607ZM300.994 91.1719C296.242 91.1719 292.091 90.2279 288.543 88.3398C285.027 86.4518 282.293 83.7663 280.34 80.2832C278.387 76.8001 277.41 72.666 277.41 67.8809C277.41 63.4212 278.338 59.4173 280.193 55.8691C282.049 52.321 284.669 49.5215 288.055 47.4707C291.44 45.3874 295.411 44.3457 299.969 44.3457C305.6 44.3457 310.011 45.9245 313.201 49.082C316.424 52.2396 318.605 56.4388 319.744 61.6797C319.777 61.7773 319.793 61.9401 319.793 62.168C319.793 62.6562 319.663 63.0306 319.402 63.291C319.174 63.5189 318.865 63.7142 318.475 63.877C317.368 64.3978 316.196 64.8535 314.959 65.2441C313.722 65.6348 312.518 66.0579 311.346 66.5137C307.928 67.7832 304.493 69.0365 301.043 70.2734C297.592 71.4779 294.174 72.7637 290.789 74.1309C290.529 74.2611 290.398 74.4238 290.398 74.6191C290.398 74.7168 290.431 74.8307 290.496 74.9609C291.798 77.3047 293.589 79.0462 295.867 80.1855C298.146 81.3249 300.587 81.8945 303.191 81.8945C305.242 81.8945 307.146 81.569 308.904 80.918C310.695 80.2669 312.452 79.4531 314.178 78.4766C314.406 78.3464 314.633 78.2324 314.861 78.1348C315.089 78.0371 315.317 77.9883 315.545 77.9883C316.001 77.9883 316.342 78.1348 316.57 78.4277C316.831 78.6882 317.042 78.9974 317.205 79.3555C317.335 79.5833 317.579 80.1042 317.938 80.918C318.328 81.6992 318.686 82.4967 319.012 83.3105C319.37 84.0918 319.549 84.5964 319.549 84.8242C319.549 85.1823 319.451 85.4753 319.256 85.7031C319.061 85.931 318.833 86.1426 318.572 86.3379C316.261 87.9329 313.445 89.1374 310.125 89.9512C306.837 90.765 303.794 91.1719 300.994 91.1719ZM288.738 67.3926C292.026 66.2533 295.314 65.1139 298.602 63.9746C301.889 62.8353 305.161 61.696 308.416 60.5566C307.602 58.7663 306.463 57.2038 304.998 55.8691C303.566 54.5345 301.792 53.8672 299.676 53.8672C297.202 53.8672 295.151 54.5345 293.523 55.8691C291.896 57.2038 290.691 58.9128 289.91 60.9961C289.129 63.0469 288.738 65.179 288.738 67.3926ZM342.498 56.6992C342.498 56.4388 342.27 56.3086 341.814 56.3086H328.777C327.443 56.3086 326.775 55.6413 326.775 54.3066C326.775 53.1999 326.759 52.1094 326.727 51.0352C326.727 49.9284 326.727 48.8216 326.727 47.7148C326.727 46.3802 327.394 45.7129 328.729 45.7129H357.684C358.139 45.7129 358.628 45.7943 359.148 45.957C359.702 46.0872 359.979 46.4616 359.979 47.0801C359.979 47.3405 359.913 47.6172 359.783 47.9102C359.686 48.1706 359.572 48.431 359.441 48.6914C359.181 49.1797 358.595 50.2539 357.684 51.9141C356.805 53.5417 355.747 55.4948 354.51 57.7734C353.273 60.0195 351.987 62.3633 350.652 64.8047C349.318 67.2135 348.064 69.4922 346.893 71.6406C345.753 73.7565 344.826 75.498 344.109 76.8652C343.393 78.1999 343.035 78.8997 343.035 78.9648C343.035 79.2253 343.263 79.3555 343.719 79.3555H359.002C360.337 79.3555 361.004 80.0065 361.004 81.3086L361.053 87.9492C361.053 89.3164 360.385 90 359.051 90H327.557C327.133 90 326.629 89.9349 326.043 89.8047C325.49 89.6419 325.213 89.2676 325.213 88.6816C325.213 88.3887 325.278 88.0957 325.408 87.8027C325.538 87.5098 325.669 87.2493 325.799 87.0215C326.092 86.5007 326.694 85.4264 327.605 83.7988C328.517 82.1712 329.591 80.2344 330.828 77.9883C332.098 75.7422 333.4 73.4147 334.734 71.0059C336.102 68.5645 337.371 66.2858 338.543 64.1699C339.715 62.054 340.659 60.3125 341.375 58.9453C342.124 57.5456 342.498 56.7969 342.498 56.6992ZM369.402 29.0625C369.402 27.2721 370.07 25.7422 371.404 24.4727C372.739 23.1706 374.301 22.5195 376.092 22.5195C377.915 22.5195 379.51 23.1868 380.877 24.5215C382.277 25.8236 382.977 27.4023 382.977 29.2578C382.977 31.0482 382.309 32.6107 380.975 33.9453C379.673 35.2474 378.11 35.8984 376.287 35.8984C374.432 35.8984 372.82 35.2311 371.453 33.8965C370.086 32.5293 369.402 30.918 369.402 29.0625ZM370.135 58.5059V47.7148C370.135 46.3802 370.802 45.7129 372.137 45.7129H379.656C380.991 45.7129 381.658 46.3802 381.658 47.7148C381.658 54.4206 381.674 61.1426 381.707 67.8809C381.74 74.5866 381.756 81.2923 381.756 87.998C381.756 89.3327 381.089 90 379.754 90H372.039C370.704 90 370.037 89.3327 370.037 87.998C370.037 83.0827 370.053 78.1673 370.086 73.252C370.118 68.3366 370.135 63.4212 370.135 58.5059ZM409.1 90.9277C404.868 90.9277 401.32 89.9186 398.455 87.9004C395.59 85.8822 393.426 83.2129 391.961 79.8926C390.529 76.5397 389.812 72.9102 389.812 69.0039V68.2227C389.878 64.1211 390.724 60.2637 392.352 56.6504C394.012 53.0371 396.404 50.1237 399.529 47.9102C402.654 45.6641 406.43 44.541 410.857 44.541C413.592 44.541 416.131 45.0618 418.475 46.1035C420.851 47.1126 423.064 48.4961 425.115 50.2539C425.343 50.4818 425.538 50.5957 425.701 50.5957C426.092 50.5957 426.271 50.1888 426.238 49.375C426.238 48.5612 426.352 47.7474 426.58 46.9336C426.84 46.1198 427.492 45.7129 428.533 45.7129H435.418C436.753 45.7129 437.42 46.3802 437.42 47.7148C437.42 49.1146 437.404 50.5143 437.371 51.9141C437.371 53.3138 437.371 54.7135 437.371 56.1133C437.371 59.694 437.387 63.291 437.42 66.9043C437.485 70.5176 437.534 74.1146 437.566 77.6953C437.599 79.388 437.632 81.097 437.664 82.8223C437.729 84.515 437.762 86.224 437.762 87.9492C437.762 89.3164 437.094 90 435.76 90H428.094C427.215 90 426.645 89.7233 426.385 89.1699C426.124 88.584 426.01 87.9004 426.043 87.1191C426.076 86.3379 426.076 85.638 426.043 85.0195C426.043 84.9219 426.027 84.7591 425.994 84.5312C425.962 84.3034 425.864 84.1895 425.701 84.1895C425.571 84.1895 425.441 84.2383 425.311 84.3359C425.213 84.4336 425.115 84.515 425.018 84.5801C422.739 86.5007 420.281 88.0469 417.645 89.2188C415.008 90.3581 412.16 90.9277 409.1 90.9277ZM414.08 80.5273C416.391 80.5273 418.523 80.0553 420.477 79.1113C422.462 78.1348 424.008 76.6048 425.115 74.5215C425.18 74.3913 425.327 74.0658 425.555 73.5449C425.815 72.9915 425.945 72.6497 425.945 72.5195C425.945 71.3802 425.929 70.2409 425.896 69.1016C425.896 67.9622 425.896 66.8392 425.896 65.7324C425.896 65.2116 425.913 64.6419 425.945 64.0234C425.978 63.3724 425.962 62.8027 425.896 62.3145C425.864 62.0866 425.734 61.7448 425.506 61.2891C425.311 60.8333 425.164 60.5078 425.066 60.3125C423.927 58.2617 422.316 56.7318 420.232 55.7227C418.149 54.7135 415.968 54.209 413.689 54.209C411.281 54.209 409.165 54.8112 407.342 56.0156C405.519 57.2201 404.087 58.8151 403.045 60.8008C402.036 62.7539 401.531 64.9023 401.531 67.2461C401.531 69.5898 402.068 71.7708 403.143 73.7891C404.217 75.8073 405.698 77.4349 407.586 78.6719C409.507 79.9089 411.671 80.5273 414.08 80.5273Z" fill="white"/>
</svg>
