<svg width="507" height="127" viewBox="0 0 507 127" fill="none" xmlns="http://www.w3.org/2000/svg">
<path d="M17.9349 0.0102346C18.3246 0.0102346 18.7143 0.00723697 19.116 0.00723697C20.1892 0.00124167 21.2593 0.00423932 22.3325 0.00723697C23.4926 0.0102346 24.6527 0.00723697 25.8098 0.00423932C28.079 -0.00175598 30.3482 0.00124167 32.6144 0.00423932C34.461 0.00423932 36.3046 0.00423932 38.1481 0.00423932C38.4119 0.00423932 38.6757 0.00423932 38.9455 0.00423932C39.4791 0.00423932 40.0157 0.00423932 40.5492 0.00423932C45.5523 0.00124167 50.5584 0.00423932 55.5645 0.00723697C59.8541 0.0132323 64.1437 0.0102346 68.4304 0.00723697C73.4185 0.00124167 78.4066 0.00124167 83.3947 0.00423932C83.9282 0.00423932 84.4588 0.00423932 84.9924 0.00423932C85.2532 0.00423932 85.517 0.00423932 85.7868 0.00423932C87.6273 0.00423932 89.4679 0.00423932 91.3085 0.00124167C93.5537 -0.00175598 95.7989 0.00124167 98.0442 0.00423932C99.1893 0.00723697 100.331 0.00723697 101.477 0.00423932C102.721 0.00124167 103.962 0.00723697 105.206 0.0102346C105.562 0.00723697 105.922 0.00723697 106.291 0.00423932C110.922 0.0372135 114.756 1.29323 118.128 4.50971C120.973 7.42043 122.742 10.8707 122.775 14.9925C122.778 15.1903 122.781 15.3852 122.781 15.586C122.787 16.2335 122.79 16.881 122.793 17.5285C122.796 17.7473 122.796 17.9692 122.799 18.2C122.805 19.3721 122.808 20.5441 122.811 21.7162C122.814 22.9243 122.826 24.1323 122.838 25.3404C122.844 26.2697 122.847 27.2019 122.847 28.1342C122.85 28.5779 122.853 29.0245 122.859 29.4712C122.865 30.0947 122.865 30.7182 122.865 31.3417C122.865 31.8753 122.865 31.8753 122.868 32.4148C122.661 33.8177 122.001 34.738 120.991 35.7093C119.414 36.8574 117.769 37.7537 116.015 38.608C115.61 38.8088 115.61 38.8088 115.197 39.0157C113.215 39.9929 113.215 39.9929 112.532 39.9929C112.529 39.6902 112.529 39.3904 112.526 39.0786C112.517 36.2249 112.499 33.3711 112.475 30.5173C112.463 29.0515 112.454 27.5856 112.448 26.1168C112.445 24.7019 112.433 23.284 112.421 21.8661C112.415 21.3295 112.412 20.79 112.412 20.2504C112.484 15.7659 112.484 15.7659 110.338 11.9829C108.218 10.7508 106.108 10.8288 103.716 10.8378C103.341 10.8378 102.966 10.8348 102.58 10.8348C101.545 10.8318 100.508 10.8318 99.4711 10.8318C98.353 10.8348 97.2318 10.8318 96.1137 10.8288C93.9224 10.8258 91.7311 10.8258 89.5398 10.8258C87.7592 10.8258 85.9786 10.8258 84.195 10.8228C83.8173 10.8228 83.8173 10.8228 83.4276 10.8228C82.912 10.8228 82.3964 10.8228 81.8839 10.8228C77.0516 10.8198 72.2224 10.8198 67.3902 10.8228C62.9747 10.8228 58.5561 10.8198 54.1376 10.8138C49.5991 10.8078 45.0637 10.8048 40.5252 10.8078C37.9772 10.8078 35.4292 10.8078 32.8842 10.8018C30.7139 10.7988 28.5466 10.7988 26.3793 10.8018C25.2732 10.8048 24.1671 10.8048 23.0609 10.8018C21.8619 10.7958 20.6628 10.7988 19.4638 10.8048C19.113 10.8018 18.7653 10.7988 18.4056 10.7958C16.1094 10.8138 14.4607 11.1225 12.4642 12.3216C11.0314 13.8354 10.7766 15.7359 10.8005 17.7503C10.8005 18.0831 10.8005 18.0831 10.8005 18.4218C10.7975 19.1622 10.8035 19.8997 10.8065 20.6371C10.8095 21.1707 10.8065 21.7012 10.8065 22.2348C10.8065 23.6737 10.8125 25.1126 10.8185 26.5514C10.8245 28.0563 10.8245 29.5641 10.8275 31.0689C10.8275 33.9197 10.8365 36.7674 10.8455 39.6182C10.8545 42.8617 10.8605 46.1081 10.8635 49.3516C10.8755 56.0244 10.8905 62.6971 10.9115 69.3699C11.1153 69.0851 11.3191 68.7973 11.529 68.5036C11.7988 68.1229 12.0715 67.7422 12.3413 67.3615C12.4762 67.1756 12.6111 66.9868 12.749 66.7919C13.7952 65.3261 14.8594 63.8692 15.9325 62.4183C16.2922 61.9297 16.652 61.4441 17.0117 60.9555C17.1945 60.7097 17.3744 60.4669 17.5602 60.2151C18.2677 59.2558 18.9751 58.2966 19.6796 57.3403C20.0303 56.8637 20.378 56.3901 20.7288 55.9164C21.5981 54.7384 22.4644 53.5603 23.3277 52.3792C25.3571 49.6124 27.4165 46.8725 29.5029 44.1477C30.8608 42.37 32.1978 40.5775 33.5227 38.7759C33.6966 38.5391 33.8705 38.3052 34.0473 38.0624C34.6678 37.2201 35.2854 36.3777 35.8999 35.5354C39.9077 30.0287 39.9077 30.0287 42.9863 29.2014C45.2406 28.8866 47.0391 29.2313 48.9816 30.4004C50.6393 31.6714 51.9493 33.1073 53.1783 34.786C53.5141 35.2356 53.8498 35.6853 54.1885 36.1349C54.3624 36.3717 54.5393 36.6086 54.7191 36.8514C55.4985 37.8916 56.2869 38.9257 57.0783 39.9569C58.8709 42.3041 60.6515 44.6603 62.4201 47.0254C64.0598 49.2137 65.7295 51.375 67.4022 53.5333C67.651 53.8541 67.8998 54.1748 68.1456 54.4955C68.2685 54.6514 68.3884 54.8073 68.5143 54.9692C69.2098 55.8745 69.8932 56.7888 70.5647 57.715C70.7146 57.9219 70.8645 58.1257 71.0174 58.3385C71.3081 58.7432 71.5989 59.1449 71.8897 59.5496C72.5821 60.5688 72.5821 60.5688 73.5624 61.2762C73.6253 61.1174 73.6913 60.9585 73.7572 60.7966C74.3148 59.8014 75.0582 58.998 75.8286 58.1677C76.0684 57.9069 76.0684 57.9069 76.3142 57.6401C78.5115 55.3229 80.8676 53.7371 84.1081 53.4763C87.4025 53.5033 89.9655 54.9122 92.2977 57.1365C93.6376 58.5364 94.8367 60.0622 96.0448 61.576C95.6311 62.82 95.0855 63.5425 94.1592 64.4597C93.9014 64.7145 93.6436 64.9723 93.3768 65.2361C93.1071 65.4999 92.8373 65.7637 92.5585 66.0365C92.2947 66.2973 92.0309 66.5581 91.7611 66.8279C90.649 67.925 89.5339 69.0012 88.3468 70.0174C86.809 71.3573 85.3851 72.8022 83.9492 74.2501C83.6555 74.5438 83.3647 74.8406 83.0709 75.1344C82.1476 76.0607 81.2274 76.9869 80.3071 77.9132C79.2369 78.9894 78.1668 80.0655 77.0966 81.1387C76.6739 81.5643 76.2513 81.99 75.8286 82.4187C74.5066 83.7436 73.1697 85.0176 71.7518 86.2347C70.6247 87.2329 69.5785 88.3121 68.5203 89.3792C68.2775 89.625 68.0347 89.8678 67.7829 90.1226C67.0095 90.899 66.2391 91.6754 65.4687 92.4518C64.4495 93.477 63.4333 94.5022 62.4141 95.5244C62.1833 95.7552 61.9555 95.989 61.7186 96.2259C60.4656 97.4879 59.1826 98.6929 57.8337 99.85C57.5729 100.075 57.3181 100.303 57.0753 100.545C56.5147 100.578 55.9512 100.587 55.3906 100.59C55.0249 100.593 54.6592 100.593 54.2845 100.596C53.8738 100.596 53.4661 100.599 53.0554 100.599C52.6298 100.599 52.2011 100.602 51.7724 100.605C50.3635 100.611 48.9516 100.614 47.5428 100.617C47.0571 100.617 46.5715 100.62 46.0859 100.62C43.7987 100.626 41.5145 100.629 39.2273 100.632C36.5953 100.635 33.9634 100.644 31.3285 100.656C29.2931 100.665 27.2546 100.668 25.2192 100.671C24.0022 100.671 22.7881 100.674 21.5711 100.68C20.426 100.689 19.2779 100.689 18.1328 100.686C17.7131 100.686 17.2964 100.689 16.8798 100.692C11.9576 100.74 8.02771 99.4034 4.40955 96.049C1.22004 92.7336 0.0209839 88.7887 0.0389698 84.2532C0.0389698 83.9535 0.0389703 83.6507 0.0359726 83.3419C0.032975 82.3377 0.0359726 81.3365 0.0359726 80.3323C0.0359726 79.6099 0.0329743 78.8904 0.0329743 78.168C0.026979 76.4144 0.0269789 74.6608 0.0269789 72.9101C0.0269789 71.4832 0.0269789 70.0564 0.0269789 68.6325C0.0269789 68.4286 0.0269789 68.2248 0.0269789 68.015C0.0269789 67.6013 0.0239818 67.1906 0.0239818 66.7769C0.0209841 62.907 0.0209841 59.037 0.0239818 55.167C0.0269794 51.6328 0.020984 48.0956 0.0179863 44.5613C0.011991 40.9252 0.00899373 37.289 0.00899373 33.6529C0.00899373 31.6145 0.00899309 29.5761 0.00599544 27.5377C1.37356e-07 25.6192 0.00299779 23.7007 0.00599544 21.7852C0.00599544 21.0807 0.00599594 20.3793 0.00299829 19.6778C6.40434e-07 18.7156 0.00299779 17.7533 0.00599544 16.7911C0.00299779 16.5153 0.00299765 16.2395 0 15.9577C0.0389695 11.1495 2.14332 7.39045 5.47671 4.06006C8.98696 0.774636 13.2616 -0.0167442 17.9349 0.0102346Z" fill="#30B4F2"/>
<path d="M122.797 55.3831C124.224 56.4773 125.45 57.9251 125.864 59.7057C126.17 62.1818 125.789 63.8425 124.266 65.8209C122.944 67.3707 121.481 68.7946 120.031 70.2275C119.464 70.791 118.9 71.3546 118.334 71.9182C117.968 72.2839 117.602 72.6496 117.237 73.0123C116.988 73.2611 116.988 73.2611 116.733 73.5129C115.906 74.3313 115.066 75.1137 114.179 75.8661C112.377 77.4278 110.723 79.1455 109.041 80.8332C108.406 81.4717 107.77 82.1102 107.135 82.7487C105.786 84.1006 104.437 85.4556 103.088 86.8105C101.523 88.3813 99.9582 89.952 98.3935 91.5228C97.7699 92.1463 97.1494 92.7728 96.5259 93.3993C94.9162 95.0151 93.3184 96.6098 91.5768 98.0877C90.1379 99.3736 88.798 100.771 87.437 102.14C86.8525 102.728 86.265 103.316 85.6804 103.903C84.4364 105.15 83.1954 106.397 81.9543 107.644C80.5155 109.092 79.0736 110.537 77.6317 111.985C77.0592 112.56 76.4866 113.136 75.9141 113.711C74.3373 115.294 72.7605 116.856 71.0579 118.307C70.2965 118.966 69.604 119.683 68.9056 120.405C68.6088 120.708 68.315 121.011 68.0182 121.313C67.5656 121.775 67.113 122.243 66.6633 122.71C62.9492 126.562 62.9492 126.562 60.2034 127C57.6164 126.997 56.0726 126.703 54.2201 124.884C52.7902 123.292 52.4245 121.883 52.4904 119.794C52.8292 116.829 55.4011 114.773 57.3736 112.74C57.7093 112.386 57.7093 112.386 58.0541 112.024C58.5127 111.55 58.9893 111.091 59.4719 110.642C59.6698 110.642 59.8676 110.642 60.0715 110.642C60.0715 110.444 60.0715 110.246 60.0715 110.042C60.8179 109.23 61.5943 108.525 62.4516 107.83C63.3239 107.12 64.0194 106.316 64.7388 105.456C65.5991 104.437 66.5314 103.555 67.5656 102.716C68.4859 101.973 68.4859 101.973 69.2143 101.049C69.8588 100.276 70.5003 99.6974 71.2827 99.0739C71.8492 98.5733 72.3229 98.0277 72.8115 97.4521C73.435 96.7177 74.0435 96.0642 74.7989 95.4647C75.7192 94.7063 76.4057 93.8819 77.1581 92.9557C78.2103 91.8705 79.3134 90.8543 80.4375 89.8441C81.5856 88.8039 82.6498 87.7488 83.627 86.5437C84.2985 85.7793 85.0749 85.1468 85.8483 84.4873C87.1463 83.3572 88.3333 82.1401 89.4305 80.8152C90.06 80.0628 90.7195 79.4213 91.4659 78.7858C92.6769 77.7396 93.813 76.6365 94.9372 75.5004C95.2459 75.1916 95.2459 75.1916 95.5577 74.8768C95.9983 74.4362 96.439 73.9925 96.8766 73.5489C97.5721 72.8474 98.2706 72.149 98.969 71.4475C100.95 69.4601 102.932 67.4666 104.91 65.4762C106.124 64.2532 107.338 63.0331 108.555 61.8131C109.017 61.3484 109.479 60.8838 109.94 60.4192C110.582 59.7717 111.229 59.1212 111.874 58.4737C112.063 58.2848 112.252 58.093 112.443 57.8981C115.27 55.0774 118.897 53.0989 122.797 55.3831Z" fill="#30B4F2"/>
<path d="M136.718 25.7333C136.946 25.7573 137.176 25.7812 137.41 25.8082C138.226 27.2681 138.594 28.659 138.966 30.2657C139.829 33.746 141.178 38.1136 144.305 40.1969C147.224 41.9536 150.282 43.0537 153.544 44.016C153.813 44.0969 154.083 44.1778 154.365 44.2588C154.608 44.3307 154.851 44.3996 155.099 44.4716C155.696 44.6934 155.696 44.6934 156.295 45.2929C156.388 46.0244 156.388 46.0244 156.295 46.7918C155.627 47.6461 154.934 47.9129 153.918 48.2396C153.481 48.3835 153.481 48.3835 153.034 48.5304C152.725 48.6323 152.416 48.7313 152.099 48.8332C149.662 49.6545 147.35 50.4369 145.204 51.8878C145.015 52.0107 144.826 52.1336 144.629 52.2625C140.54 55.3051 139.425 61.0216 138.28 65.692C138.01 66.5763 138.01 66.5763 137.41 67.1758C136.682 67.2867 136.682 67.2867 135.911 67.1758C135.168 66.3574 134.856 65.632 134.604 64.5648C134.538 64.2921 134.469 64.0193 134.401 63.7405C134.332 63.4527 134.26 63.1619 134.188 62.8682C132.986 58.2458 131.274 53.9741 127.086 51.2942C125.27 50.2361 123.348 49.5946 121.355 48.9471C120.653 48.7133 119.955 48.4825 119.256 48.2486C118.951 48.1467 118.645 48.0478 118.327 47.9429C117.626 47.6911 117.626 47.6911 117.326 47.3913C117.197 46.6988 117.197 46.6988 117.326 45.8925C118.714 44.7863 120.195 44.2528 121.861 43.6832C126.466 42.0435 130.207 40.3618 132.431 35.7394C133.324 33.5302 133.93 31.2549 134.478 28.9408C135.225 25.8712 135.225 25.8712 136.718 25.7333Z" fill="#30B4F2"/>
<path d="M122.722 75.869C122.743 78.0393 122.758 80.2096 122.77 82.3829C122.773 83.3901 122.779 84.3973 122.791 85.4075C122.8 86.5706 122.806 87.7337 122.809 88.8968C122.815 89.2535 122.818 89.6103 122.824 89.976C122.824 94.5354 121.472 97.9257 118.361 101.241C115.702 103.798 112.411 105.588 108.672 105.579C108.319 105.579 107.965 105.579 107.599 105.579C107.219 105.579 106.838 105.576 106.445 105.576C105.861 105.576 105.861 105.576 105.261 105.573C104.224 105.573 103.187 105.57 102.153 105.567C101.091 105.564 100.033 105.561 98.975 105.561C96.8977 105.558 94.8233 105.552 92.7459 105.546C92.7459 105.249 92.7459 104.952 92.7459 104.646C93.1446 104.293 93.1446 104.293 93.7201 103.915C95.4228 102.707 96.8287 101.214 98.2796 99.7213C98.7802 99.2117 99.2838 98.7081 99.7904 98.2015C100.663 97.3262 101.535 96.4509 102.41 95.5726C104.569 93.4023 106.73 91.235 108.891 89.0707C110.198 87.7577 111.505 86.4477 112.809 85.1348C114.074 83.8668 115.339 82.5957 116.607 81.3277C117.09 80.8451 117.572 80.3595 118.052 79.8769C118.724 79.1994 119.398 78.5279 120.07 77.8535C120.27 77.6526 120.471 77.4488 120.675 77.2419C120.858 77.0591 121.041 76.8762 121.23 76.6904C121.388 76.5315 121.547 76.3696 121.712 76.2078C122.123 75.869 122.123 75.869 122.722 75.869Z" fill="#30B4F2"/>
<path d="M93.7787 26.8715C96.4915 28.8949 98.2062 31.1911 98.8717 34.5395C99.2434 37.4862 98.7398 40.1121 97.0551 42.5762C95.2835 44.7764 93.2091 46.629 90.3464 47.0906C87.1598 47.3544 84.378 47.2885 81.7491 45.2741C79.2191 43.0948 77.6483 40.9335 77.3605 37.5641C77.2286 34.2907 77.8252 31.6587 79.9085 29.0718C83.4607 25.3966 89.2792 24.0237 93.7787 26.8715Z" fill="#30B4F2"/>
<path d="M188.152 31.5938C188.152 30.2266 188.82 29.543 190.154 29.543H230.34C231.674 29.543 232.342 30.2266 232.342 31.5938C232.342 32.8307 232.342 34.1328 232.342 35.5C232.374 36.8346 232.342 38.1204 232.244 39.3574C232.146 40.6595 231.479 41.3105 230.242 41.3105H201.189C200.799 41.3105 200.604 41.5059 200.604 41.8965C200.604 44.5983 200.604 47.3164 200.604 50.0508C200.636 52.7526 200.652 55.4544 200.652 58.1562C200.652 58.5469 200.848 58.7422 201.238 58.7422H225.994C227.329 58.7422 227.996 59.4095 227.996 60.7441V68.4102C227.996 69.7448 227.329 70.4121 225.994 70.4121H201.238C200.848 70.4121 200.652 70.6074 200.652 70.998C200.652 73.8301 200.652 76.6621 200.652 79.4941C200.652 82.2936 200.636 85.1094 200.604 87.9414C200.571 89.276 200.555 90.627 200.555 91.9941C200.587 93.3288 200.571 94.6634 200.506 95.998C200.408 97.3327 199.741 98 198.504 98H190.105C188.771 98 188.104 97.3164 188.104 95.9492C188.104 94.1589 188.12 92.3848 188.152 90.627C188.217 88.8366 188.266 87.0462 188.299 85.2559C188.396 77.7689 188.445 70.2982 188.445 62.8438C188.445 57.6029 188.396 52.3945 188.299 47.2188C188.201 42.0104 188.152 36.8021 188.152 31.5938ZM257.439 98.9277C253.208 98.9277 249.66 97.9186 246.795 95.9004C243.93 93.8822 241.766 91.2129 240.301 87.8926C238.868 84.5397 238.152 80.9102 238.152 77.0039V76.2227C238.217 72.1211 239.064 68.2637 240.691 64.6504C242.352 61.0371 244.744 58.1237 247.869 55.9102C250.994 53.6641 254.77 52.541 259.197 52.541C261.932 52.541 264.471 53.0618 266.814 54.1035C269.191 55.1126 271.404 56.4961 273.455 58.2539C273.683 58.4818 273.878 58.5957 274.041 58.5957C274.432 58.5957 274.611 58.1888 274.578 57.375C274.578 56.5612 274.692 55.7474 274.92 54.9336C275.18 54.1198 275.831 53.7129 276.873 53.7129H283.758C285.092 53.7129 285.76 54.3802 285.76 55.7148C285.76 57.1146 285.743 58.5143 285.711 59.9141C285.711 61.3138 285.711 62.7135 285.711 64.1133C285.711 67.694 285.727 71.291 285.76 74.9043C285.825 78.5176 285.874 82.1146 285.906 85.6953C285.939 87.388 285.971 89.097 286.004 90.8223C286.069 92.515 286.102 94.224 286.102 95.9492C286.102 97.3164 285.434 98 284.1 98H276.434C275.555 98 274.985 97.7233 274.725 97.1699C274.464 96.584 274.35 95.9004 274.383 95.1191C274.415 94.3379 274.415 93.638 274.383 93.0195C274.383 92.9219 274.367 92.7591 274.334 92.5312C274.301 92.3034 274.204 92.1895 274.041 92.1895C273.911 92.1895 273.781 92.2383 273.65 92.3359C273.553 92.4336 273.455 92.515 273.357 92.5801C271.079 94.5007 268.621 96.0469 265.984 97.2188C263.348 98.3581 260.499 98.9277 257.439 98.9277ZM262.42 88.5273C264.731 88.5273 266.863 88.0553 268.816 87.1113C270.802 86.1348 272.348 84.6048 273.455 82.5215C273.52 82.3913 273.667 82.0658 273.895 81.5449C274.155 80.9915 274.285 80.6497 274.285 80.5195C274.285 79.3802 274.269 78.2409 274.236 77.1016C274.236 75.9622 274.236 74.8392 274.236 73.7324C274.236 73.2116 274.253 72.6419 274.285 72.0234C274.318 71.3724 274.301 70.8027 274.236 70.3145C274.204 70.0866 274.074 69.7448 273.846 69.2891C273.65 68.8333 273.504 68.5078 273.406 68.3125C272.267 66.2617 270.656 64.7318 268.572 63.7227C266.489 62.7135 264.308 62.209 262.029 62.209C259.62 62.209 257.505 62.8112 255.682 64.0156C253.859 65.2201 252.426 66.8151 251.385 68.8008C250.376 70.7539 249.871 72.9023 249.871 75.2461C249.871 77.5898 250.408 79.7708 251.482 81.7891C252.557 83.8073 254.038 85.4349 255.926 86.6719C257.846 87.9089 260.011 88.5273 262.42 88.5273ZM343.377 75.9785C343.377 80.1777 342.498 84.0189 340.74 87.502C338.982 90.985 336.492 93.7682 333.27 95.8516C330.047 97.9023 326.238 98.9277 321.844 98.9277C316.538 98.9277 311.997 97.2513 308.221 93.8984C308.123 93.8333 308.009 93.752 307.879 93.6543C307.781 93.5241 307.651 93.459 307.488 93.459C307.326 93.459 307.228 93.5892 307.195 93.8496C307.163 94.0775 307.146 94.2402 307.146 94.3379C307.146 95.1191 307.114 95.9329 307.049 96.7793C306.984 97.5931 306.382 98 305.242 98H297.43C296.095 98 295.428 97.3164 295.428 95.9492C295.428 94.1589 295.444 92.3848 295.477 90.627C295.542 88.8366 295.59 87.0462 295.623 85.2559C295.688 81.5124 295.737 77.7689 295.77 74.0254C295.802 70.2819 295.818 66.5384 295.818 62.7949C295.818 59.0514 295.802 55.3079 295.77 51.5645C295.737 47.821 295.688 44.0775 295.623 40.334C295.59 38.5436 295.542 36.7695 295.477 35.0117C295.444 33.2214 295.428 31.431 295.428 29.6406C295.428 28.2734 296.095 27.5898 297.43 27.5898H304.998C305.779 27.5898 306.284 27.7526 306.512 28.0781C306.772 28.4036 306.935 28.9082 307 29.5918C307.13 30.6335 307.163 32.0495 307.098 33.8398C307.065 35.6302 307.065 37.1113 307.098 38.2832C307.13 41.3431 307.146 44.3867 307.146 47.4141C307.179 50.4414 307.195 53.485 307.195 56.5449C307.195 56.6751 307.212 56.8379 307.244 57.0332C307.277 57.2285 307.391 57.3262 307.586 57.3262C307.749 57.3262 307.96 57.2285 308.221 57.0332C312.452 54.0384 317.156 52.541 322.332 52.541C326.954 52.541 330.812 53.599 333.904 55.7148C337.029 57.7982 339.389 60.6139 340.984 64.1621C342.579 67.7103 343.377 71.6491 343.377 75.9785ZM319.549 88.1367C321.958 88.1367 324.074 87.5345 325.896 86.3301C327.719 85.1257 329.135 83.5306 330.145 81.5449C331.186 79.5592 331.707 77.4108 331.707 75.0996C331.707 72.7559 331.202 70.5911 330.193 68.6055C329.184 66.5872 327.768 64.9596 325.945 63.7227C324.155 62.4857 322.023 61.8672 319.549 61.8672C317.335 61.8672 315.203 62.3555 313.152 63.332C311.134 64.276 309.539 65.7246 308.367 67.6777C308.237 67.9056 308.042 68.2799 307.781 68.8008C307.521 69.3216 307.358 69.7122 307.293 69.9727C307.228 70.3633 307.212 70.819 307.244 71.3398C307.277 71.8607 307.293 72.3327 307.293 72.7559C307.293 73.9928 307.293 75.2461 307.293 76.5156C307.293 77.7526 307.277 78.9896 307.244 80.2266C308.286 82.8958 309.897 84.8815 312.078 86.1836C314.259 87.4857 316.749 88.1367 319.549 88.1367ZM351.434 29.5918C351.434 28.2572 352.101 27.5898 353.436 27.5898H361.15C362.485 27.5898 363.152 28.2572 363.152 29.5918C363.152 35.1257 363.136 40.6595 363.104 46.1934C363.071 51.7272 363.055 57.2611 363.055 62.7949C363.055 68.3288 363.071 73.8626 363.104 79.3965C363.136 84.9303 363.152 90.4642 363.152 95.998C363.152 97.3327 362.485 98 361.15 98H353.436C352.101 98 351.434 97.3327 351.434 95.998C351.434 90.4642 351.45 84.9303 351.482 79.3965C351.515 73.8626 351.531 68.3288 351.531 62.7949C351.531 57.2611 351.515 51.7272 351.482 46.1934C351.45 40.6595 351.434 35.1257 351.434 29.5918ZM394.744 99.1719C389.992 99.1719 385.841 98.2279 382.293 96.3398C378.777 94.4518 376.043 91.7663 374.09 88.2832C372.137 84.8001 371.16 80.666 371.16 75.8809C371.16 71.4212 372.088 67.4173 373.943 63.8691C375.799 60.321 378.419 57.5215 381.805 55.4707C385.19 53.3874 389.161 52.3457 393.719 52.3457C399.35 52.3457 403.761 53.9245 406.951 57.082C410.174 60.2396 412.355 64.4388 413.494 69.6797C413.527 69.7773 413.543 69.9401 413.543 70.168C413.543 70.6562 413.413 71.0306 413.152 71.291C412.924 71.5189 412.615 71.7142 412.225 71.877C411.118 72.3978 409.946 72.8535 408.709 73.2441C407.472 73.6348 406.268 74.0579 405.096 74.5137C401.678 75.7832 398.243 77.0365 394.793 78.2734C391.342 79.4779 387.924 80.7637 384.539 82.1309C384.279 82.2611 384.148 82.4238 384.148 82.6191C384.148 82.7168 384.181 82.8307 384.246 82.9609C385.548 85.3047 387.339 87.0462 389.617 88.1855C391.896 89.3249 394.337 89.8945 396.941 89.8945C398.992 89.8945 400.896 89.569 402.654 88.918C404.445 88.2669 406.202 87.4531 407.928 86.4766C408.156 86.3464 408.383 86.2324 408.611 86.1348C408.839 86.0371 409.067 85.9883 409.295 85.9883C409.751 85.9883 410.092 86.1348 410.32 86.4277C410.581 86.6882 410.792 86.9974 410.955 87.3555C411.085 87.5833 411.329 88.1042 411.688 88.918C412.078 89.6992 412.436 90.4967 412.762 91.3105C413.12 92.0918 413.299 92.5964 413.299 92.8242C413.299 93.1823 413.201 93.4753 413.006 93.7031C412.811 93.931 412.583 94.1426 412.322 94.3379C410.011 95.9329 407.195 97.1374 403.875 97.9512C400.587 98.765 397.544 99.1719 394.744 99.1719ZM382.488 75.3926C385.776 74.2533 389.064 73.1139 392.352 71.9746C395.639 70.8353 398.911 69.696 402.166 68.5566C401.352 66.7663 400.213 65.2038 398.748 63.8691C397.316 62.5345 395.542 61.8672 393.426 61.8672C390.952 61.8672 388.901 62.5345 387.273 63.8691C385.646 65.2038 384.441 66.9128 383.66 68.9961C382.879 71.0469 382.488 73.179 382.488 75.3926ZM420.477 98C420.021 98 419.533 97.9349 419.012 97.8047C418.491 97.6419 418.23 97.2513 418.23 96.6328C418.23 96.3724 418.279 96.112 418.377 95.8516C418.475 95.5911 418.572 95.347 418.67 95.1191C421.535 88.9342 424.367 82.7493 427.166 76.5645C429.998 70.3796 432.781 64.1621 435.516 57.9121C437.762 52.7689 439.992 47.6257 442.205 42.4824C444.419 37.3066 446.697 32.1797 449.041 27.1016C449.139 26.9062 449.301 26.8086 449.529 26.8086C449.757 26.8086 449.92 26.9062 450.018 27.1016C452.361 32.1797 454.64 37.3066 456.854 42.4824C459.067 47.6257 461.297 52.7689 463.543 57.9121C466.277 64.1621 469.044 70.3796 471.844 76.5645C474.676 82.7493 477.524 88.9342 480.389 95.1191C480.486 95.347 480.584 95.5911 480.682 95.8516C480.779 96.112 480.828 96.3724 480.828 96.6328C480.828 97.2513 480.568 97.6419 480.047 97.8047C479.526 97.9349 479.038 98 478.582 98H468.719C467.905 98 467.286 97.5931 466.863 96.7793C466.603 96.2585 466.359 95.7051 466.131 95.1191C465.903 94.5332 465.675 93.9798 465.447 93.459C464.731 91.8314 464.031 90.1712 463.348 88.4785C462.697 86.7858 461.997 85.1257 461.248 83.498C461.15 83.2376 460.971 83.1074 460.711 83.1074H436.541C436.281 83.1074 436.102 83.2376 436.004 83.498C435.223 85.1257 434.474 86.7858 433.758 88.4785C433.074 90.1712 432.358 91.8477 431.609 93.5078C431.382 94.0286 431.137 94.582 430.877 95.168C430.649 95.7539 430.389 96.3073 430.096 96.8281C429.673 97.6094 429.07 98 428.289 98H420.477ZM440.594 72.9023H456.854C455.551 69.6471 454.233 66.4082 452.898 63.1855C451.564 59.9303 450.229 56.6751 448.895 53.4199C447.527 56.6751 446.144 59.9303 444.744 63.1855C443.377 66.4082 441.993 69.6471 440.594 72.9023ZM488.104 31.5449C488.104 30.2103 488.771 29.543 490.105 29.543H498.553C499.887 29.543 500.555 30.2103 500.555 31.5449C500.555 36.916 500.538 42.2871 500.506 47.6582C500.473 53.0293 500.457 58.4004 500.457 63.7715C500.457 69.1426 500.473 74.5137 500.506 79.8848C500.538 85.2559 500.555 90.627 500.555 95.998C500.555 97.3327 499.887 98 498.553 98H490.105C488.771 98 488.104 97.3327 488.104 95.998C488.104 90.627 488.12 85.2559 488.152 79.8848C488.185 74.5137 488.201 69.1426 488.201 63.7715C488.201 58.4004 488.185 53.0293 488.152 47.6582C488.12 42.2871 488.104 36.916 488.104 31.5449Z" fill="white"/>
</svg>
